<?xml version="1.0" encoding="utf-8"?>
<svg version="1.1" id="Layer_1" xmlns="http://www.w3.org/2000/svg" xmlns:xlink="http://www.w3.org/1999/xlink" x="0px" y="0px"
	 viewBox="0 0 828 191" style="enable-background:new 0 0 828 191;" xml:space="preserve">
<style type="text/css">
	.st0{fill-rule:evenodd;clip-rule:evenodd;fill:#25335D;}
</style>
<path id="elliniki_kivernisi" class="st0" d="M97.4053,0.0304l0.0795,0.024c3.3718,1.277,7.384,1.6054,11.3944,1.9246
	c4.3885,0.3055,8.5311,1.1227,8.883,1.1931l0.0242,0.0049c3.851,1.204,6.6572,2.5752,8.9906,4.1746
	c2.267,1.5688,3.9224,3.2046,5.6404,4.9986c0,0.0032,0.0058,0.0032,0.0058,0.0032c0,0.009,0.0048,0.009,0.0048,0.0122l0.0604,0.0599
	l0,0l0.0582,0.0645l-0.0152,0.0184c0.1428,0.2248,0.2246,0.538,0.3634,0.8118c0.6444,1.3042,1.7666,2.7484,2.9478,4.1412
	c1.3802,1.5352,4.1244,3.9768,4.2414,4.0558c0.012,0.0032,0.015,0.0152,0.0286,0.0242c0.8166,0.5142,1.3684,0.9732,1.9066,1.3744
	c0.2586,0.1522,0.497,0.3164,0.7554,0.4956c-0.2292-1.9396-0.3204-3.9708-0.193-6.1114c0-0.4836,0.5628-0.8026,1.0398-0.5622
	c0.7252,0.3192,1.6876,0.7994,2.732,1.368c1.0382,0.5626,2.1634,1.2012,3.2868,2.0008c5.9788,3.6946,13.1095,9.6292,15.7317,16.7389
	l0.1549,0.4367l0.0822,0.076c1.7604,8.9846,1.7604,12.1134,1.6812,15.9688c0,0.4804-0.0818,0.9608-0.0818,1.4412
	c0,1.0094,1.5962,5.3148,2.5904,7.8416c0.2565-0.9243,0.5346-1.8623,0.8559-2.803l0.2495-0.7058l4.974-11.5538
	c0.2404-0.5596,0.9638-0.5596,1.2844-0.076c5.455,9.1426,8.4208,17.8112,8.8238,26.0722
	c0.3998,8.0696-1.8654,15.6678-7.0098,22.7248c0.579,2.1738,0.9336,4.369,1.1752,6.5612c2.6024-2.1496,5.634-4.0592,9.1262-5.698
	c0.3982-0.1578,0.9592,0.1704,0.9592,0.6448c0.0642,0.6397,0.077,1.334,0.0796,2.0375v1.1076
	c-0.0026,0.7736-0.0154,1.5577-0.0796,2.3947c-0.2418,5.129-1.2528,13.4664-1.7652,15.0778
	c-0.5078,1.6146-6.259,14.7646-9.4636,18.2916c-3.2854,3.6-6.6462,5.2116-10.0868,6.5738c-0.6842,1.8636-1.5752,3.6636-2.624,5.3604
	c1.315-0.2008,2.6436-0.4198,3.9604-0.7024c0.5608-0.076,0.9666,0.4044,0.8832,0.885c-0.637,2.0916-2.0084,4.5788-4.4118,7.6254
	c-2.326,3.0434-5.698,6.5736-10.1082,10.6662c-4.6566,4.2564-9.7874,6.9806-15.4032,8.349
	c-5.6068,1.3592-11.6814,1.2832-18.1626,0.085c-1.09,0.0822-2.1784,0.1492-3.2638,0.234c-0.9942,0.0792-1.9976,0.1524-3.2078,0.1582
	c-2.186,1.9402-4.6564,3.6182-7.443,5.011c1.9474,0.4956,3.9008,0.9182,5.9212,1.2466c2.402,0.4044,4.813,0.6414,7.1392,0.8908
	c0.1614,0.0758,0.4836,0.2372,0.5596,0.3954c0.485,0.9608,0.64,1.8424,0.5684,2.8124c-0.0834,0.8818-0.4074,1.8426-1.049,2.7244
	c-0.079,0.1518-0.3998,0.3252-0.558,0.3252c-4.018-0.1734-7.8658-0.7266-11.6344-1.6084c-3.8492-0.8058-11.502-3.2168-11.5798-3.296
	c-1.0824,0.1946-2.1908,0.3586-3.3416,0.4896c-1.6098,0.1612-2.9736,0.2372-4.261,0.319c-2.5618,0.0762-4.6506,0.1614-6.0934,0.967
	c0,0-5.292,2.1648-7.9418,2.8856c-2.5692,0.8028-5.1398,1.3622-7.788,1.8486c-0.0732,0-0.4774-0.1674-0.5564-0.2494
	c-0.6448-0.6414-1.0478-1.2832-1.2056-1.9186c-0.2388-0.5686-0.2388-1.2102-0.2388-1.7694c0-0.2372,0.2388-0.6386,0.4836-0.7176
	c5.3063-1.2105,9.9149-2.7905,13.7985-4.8005l0.5771-0.3047l-20.0356-5.4544c-6.3456,1.0916-12.3748,1.3134-17.8524,0.1244
	c-5.5292-1.283-10.5096-4.0924-14.681-8.9846l-0.0192-0.0282c-0.2848-0.4174-3.6685-5.371-5.44-7.6795
	c-1.8488-2.4022-3.6076-4.5668-5.4516-6.4916c-0.4028-0.4804-0.0808-1.21,0.4772-1.21c2.1648-0.2098,4.307-0.2584,6.4384-0.1766
	c-0.0838-0.231-0.155-0.456-0.2342-0.687c-0.0912-0.1398-0.1824-0.2858-0.2614-0.4136c-0.488-0.7264-0.9684-1.3678-1.4504-2.0856
	c-2.6436-3.375-5.9336-6.4246-9.8618-9.1458c-4.9788-3.448-8.4282-8.2642-10.5144-14.2844
	c-2.008-6.0234-2.7332-13.2384-2.3272-21.4174c0.079-0.5684,0.6414-0.8878,1.1266-0.5684c1.5202,1.04,2.963,2.0888,4.3294,3.1316
	c0.8696,0.666,1.6998,1.3742,2.5298,2.101c0.0342-0.6703,0.0376-1.0132,0.038-1.3456l0-2.2028
	c-0.1336-0.2676-0.3708-0.766-0.5608-1.286c-3.7736-8.0968-9.2264-19.8178-6.0158-32.0044c0,0,1.1996-3.299,1.7618-4.737
	c1.5266-4.4118,2.8902-8.2642,5.7786-12.9222c0.239-0.4804,0.9624-0.3982,1.2024,0.079c1.3668,2.6484,2.4068,5.1416,3.4494,7.869
	c0.4382,1.277,0.8744,2.5994,1.3136,4.0196c0.2374-0.4288,0.3998-0.8242,0.5306-1.2102c0.3428-0.6884,0.6487-1.4383,1.3284-2.3499
	l0.195-0.2527v-1.9764c0.0812-8.5859,0.2519-20.661,8.7593-29.1402l0.3865-0.3772l-0.009-0.018c0,0,2.583-2.1498,3.6256-3.0376
	c3.6092-3.0496,6.6558-5.6188,12.033-7.9386c0.4804-0.2432,1.1204,0.161,0.9622,0.7176c-0.1594,1.283-0.4042,2.7302-0.5592,4.0164
	c-0.1006,0.763-0.213,1.5292-0.3196,2.2894c0.7816-0.3892,1.566-0.7632,2.323-1.0944c1.1464-0.529,2.2212-1.0706,3.2944-1.6724
	c2.063-3.8706,4.4528-7.4308,7.6988-10.4382c3.1688-2.8601,7.1593-5.1249,12.6106-6.2874l0.55-0.1126L69.0822,6.473
	c1.689-0.4014,3.3764-0.8028,4.9788-1.125c4.737-1.04,9.468-2.0888,13.8812-3.8524c0.4774-0.1642,1.0354,0.2402,0.9624,0.7206
	c-0.2386,3.2106-1.283,6.017-2.8898,8.6686c-1.686,2.563-3.933,5.0562-6.7394,7.5432c-2.8868,2.399-6.0202,3.9254-9.3876,4.8072
	c-3.3706,0.9638-6.9778,1.2832-10.7498,1.128c-1.762-0.0822-3.3672,0-5.0548,0.079c-1.669,0.0698-3.2774,0.143-5.0076,0.0182
	c-1.192,0.7114-2.3852,1.268-3.498,1.8272c-1.081,0.4656-2.168,1.0126-3.2474,1.6178c-0.4926,2.9096-2.6072,9.8512-2.6072,9.8512
	c-0.5658,1.2892-1.1996,2.5692-1.9264,3.9376c-0.725,1.2798-1.5216,2.5692-2.3288,3.8522
	C31.231,52.0256,25.3902,57.9456,19.0704,61.956c-0.0322,0.1034-1.1722,2.0372-1.4882,2.7638
	c-0.2936,0.7176-0.6676,1.4534-1.3744,2.4112c0.345,1.2008,0.6978,2.4748,1.0474,3.8522c0,0,0.2416,2.1616,0.403,3.29
	c0.2248,1.733,0.433,3.4416,0.5516,5.1232c1.0034-1.3288,2.095-2.5146,3.22-3.53c1.5188-1.3562,3.1272-2.4842,4.8938-3.287
	c0.319-0.1612,0.8802,0,0.9592,0.4806c2.0082,7.5436,1.8484,14.6886-0.4788,21.4294c-2.2302,6.595-6.5904,12.8734-12.8356,18.687
	c3.694,4.2384,6.4946,8.8418,8.3826,13.746c0.5322-2.4782,1.3926-4.7736,2.6088-6.9172c0.2416-0.4894,1.0414-0.4072,1.2862,0.073
	c1.0368,2.7272,2.323,5.1326,3.6894,7.3826c1.3562,2.1674,4.3284,6.023,4.3284,6.023c2.5708,3.7642,4.173,7.4584,5.1338,10.9884
	c0.859,3.4266,1.1814,6.7042,1.1266,9.97c0.532,0.2066,1.0688,0.4014,1.6008,0.6138c7.411,3.0344,14.6688,7.9662,21.843,14.479
	c3.9784,1.4352,8.0346,2.7852,12.0968,3.9802c0.5016,0.1426,0.985,0.2796,1.4776,0.4196c-1.8062-0.9548-3.5406-1.9762-5.166-3.071
	c-4.4132-3.0464-8.103-6.6556-10.4318-11.3928c-0.239-0.5596,0.2372-1.1188,0.7994-1.0338c2.4932,0.6388,4.9804,1.122,7.4662,1.4412
	c2.487,0.4014,4.9728,0.6384,7.4582,0.8028c0,0,8.5864,1.2862,11.7152,2.408c2.8852,1.0036,5.117,2.2744,6.587,3.8644
	c1.8868-1.7024,3.9542-3.1164,6.1708-4.2716c3.8114-1.9789,8.1316-3.2357,12.6121-3.9796l0.7087-0.1132h0.079
	c2.0916-0.152,4.0162-0.4044,6.017-0.7994c1.9244-0.4836,3.7732-1.0432,5.6174-1.8426c0.5654-0.2462,1.1232,0.3192,0.9576,0.8816
	c-1.9538,6.303-4.8342,12.0464-9.0576,16.668c2.2422-0.3222,4.167-1.0246,5.856-2.0644c2.0052-1.3682,3.6088-3.2896,5.1322-5.698
	c4.336-5.941,9.9518-10.3558,17.0056-13.3234c0.4258-0.1672,0.856-0.3254,1.2862-0.4896c-0.079-3.2868,0.4028-6.8138,1.6876-10.5018
	c1.2798-3.609,3.2094-7.5344,6.096-11.6268c0,0,0.6492-1.1434,0.885-1.6906c0.322-0.6414,0.6444-1.2008,0.88-1.8426
	c1.5262-3.2106,2.805-6.5766,3.854-10.1916c0.1598-0.4806,0.88-0.6418,1.2008-0.2404c1.4444,1.6056,2.65,3.1286,3.6108,4.8162
	c0.5774,0.888,1.0732,1.7786,1.5034,2.691c0.2082-0.9822,0.4214-1.9522,0.666-2.9374c0.479-1.6022,1.04-3.1984,1.6828-4.649
	c0.751-1.7662,1.6556-3.4448,2.6896-5.0532c-1.3592-1.1886-2.7808-2.3292-4.135-3.451c-1.364-1.1188-4.0106-3.366-4.0106-3.366
	c-3.3718-4.0132-5.8592-8.7534-6.8202-14.202c-0.962-5.4638-0.4772-11.721,2.0056-18.9362c0.2368-0.4834,0.88-0.5626,1.2846-0.164
	c1.4428,1.7634,3.0496,3.5298,4.5712,5.2172c0.6992,0.8058,1.3972,1.5872,2.0918,2.3656c-0.138-2.6146-0.076-5.321,0.2342-8.0604
	c0.196-1.6692,0.4774-3.3688,0.8606-5.099c-0.5504-1.0336-1.11-2.3046-1.7392-3.5724c-0.4536-1.0314-0.9014-2.0024-1.3487-2.924
	l-0.3355-0.682l0.0088-0.0062c-1.9838-2.3778-3.8004-4.6734-5.71-6.6494c-1.9234-2.013-3.7674-3.6942-5.6144-5.1416
	c-0.164-0.0824-0.4836-0.4044-0.9638-0.8876c-0.4836-0.4778-1.125-1.116-1.8394-2.0008c-2.9038-3.3962-7.121-9.596-8.5942-17.863
	c-0.7568-0.4592-4.249-2.837-4.3402-2.8672c-0.0456,0.009-3.603,0.2674-5.3648,0.4314c-1.7161,0.1568-6.0115,0.4051-6.2556,0.4192
	l-0.0108,0.0006c-5.0458,0-9.8772-1.195-14.1916-3.469c-0.8848-0.4804-2.8308-1.709-2.9662-1.8002
	c-3.9176,0.8058-7.5828,1.3256-11.2346,1.4776c-3.854,0.1644-7.6226-0.1578-11.4748-0.8844
	c-0.561-0.0822-0.7998-0.7146-0.4762-1.119c1.5188-1.9186,3.2854-3.6942,5.5324-5.4518c2.0114-1.511,4.366-3.016,7.0782-4.4086
	c-1.3818-2.0342-2.3852-4.2142-2.8304-6.7532c-0.061-0.3312-0.0186-0.3222,0.053-0.4984c0.0746-0.1736,0.2538-0.2738,0.6368-0.3466
	C97.2573-0.0064,97.3275,0.0083,97.4053,0.0304z M126.303,157.7654c-1.4598,0.5412-2.9326,1.0276-4.5078,1.3834
	c-1.758,0.4244-3.5183,0.6613-5.3892,0.7684l-0.707,0.0342c-4.652,0.7298-8.9876,1.9274-12.8368,3.9346
	c-3.7568,1.958-7.0466,4.6882-9.7404,8.3216c0.0122,0.1154,0.0016,0.2436-0.044,0.3468c-0.0518,0.2158-0.213,0.3556-0.4104,0.4162
	c-1.9444,3.5882-5.0262,6.5282-9.0578,8.8876c-4.1092,2.402-9.199,4.281-15.116,5.707c0.038,0.2554,0.1004,0.511,0.1932,0.7966
	c0.061,0.3132,0.272,0.672,0.552,1.046c2.44-0.4014,4.8632-1.0034,7.2284-1.6904c2.2283-0.6307,4.4588-1.4334,6.6856-2.321
	l0.954-0.3854l-0.0152-0.0178c1.8394-0.967,4.0074-1.1252,6.739-1.2072c1.2804-0.0822,2.726-0.0822,4.1656-0.2404
	c9.149-1.0458,16.0508-4.3328,21.1118-9.1486C120.8876,169.9852,124.1228,164.2416,126.303,157.7654z M107.2784,181.8126
	c-1.9384,0.8302-4.0134,1.5142-6.2408,2.0554c3.0986,0.9606,6.1968,1.8154,9.2918,2.4872c3.655,0.7784,7.3128,1.3196,11.0358,1.4988
	c0.2992-0.617,0.5274-1.1554,0.5974-1.7392c0-0.5378-0.07-1.0764-0.3194-1.6538c-2.2834-0.2372-4.626-0.5352-6.8198-0.9154
	c-2.4126-0.4014-4.8146-0.8786-7.2274-1.438C107.4686,182.0378,107.3666,181.928,107.2784,181.8126z M66.7622,178.1672
	c0.479,0,0.9622,0.1608,1.2816,0.4834c0.319,0.3222,0.561,0.7996,0.561,1.2862c0,0.4802-0.242,0.9636-0.561,1.2768
	c-0.3194,0.3286-0.8026,0.5686-1.2816,0.5686c-0.4804,0-0.967-0.24-1.2892-0.5686c-0.318-0.3132-0.558-0.7966-0.558-1.2768
	c0-0.4866,0.24-0.964,0.558-1.2862C65.7952,178.328,66.2818,178.1672,66.7622,178.1672z M121.6374,161.5598
	c0.243,0.319,0.1578,0.7236-0.1614,0.9672c-2.2718,1.5491-4.5338,3.0537-6.7871,4.5153l-1.6883,1.0881l3.3432,0.0912
	c0.3222,0,0.6414,0.3252,0.6414,0.7174c0,0.3709-0.2682,0.6725-0.6244,0.7202l-0.0992,0.0066l-5.444-0.155
	c-1.1052,0.6964-2.2058,1.3772-3.308,2.0554c0.5988,0.0638,1.213,0.1064,1.8562,0.1064c1.283,0.076,2.5662,0.076,3.8476,0
	c0.403,0,0.7222,0.3192,0.7222,0.7174c0,0.4014-0.3192,0.7208-0.7222,0.7208c-1.2814,0-2.5646,0.085-3.933,0
	c-1.1992-0.0732-2.4688-0.155-3.6104-0.4286c-1.2042,0.7448-2.3976,1.4622-3.603,2.1678c0.5884,0.0696,1.1844,0.1094,1.7574,0.1094
	c1.2848,0.079,2.6512,0.079,4.018-0.0792c0.3176,0,0.7178,0.2404,0.7178,0.6448c0,0.395-0.242,0.7174-0.6466,0.7996
	c-1.438,0.085-2.8044,0.158-4.0892,0.085c-1.248-0.082-2.4752-0.2312-3.6-0.5048c-0.8712,0.5048-1.7424,1.0004-2.6178,1.4838
	c0.6248,0.1188,1.2588,0.219,1.888,0.298c1.286,0.1614,2.5692,0.2402,3.8554,0.2402c0.3998,0,0.7208,0.3254,0.7208,0.6478
	c0,0.3982-0.321,0.7174-0.7208,0.7174c-1.3696,0.0822-2.7288,0-4.0132-0.2372c-1.2468-0.155-2.4206-0.3678-3.588-0.6476
	c-1.8822,1.0156-3.7626,2.016-5.6448,2.9704c-0.3982,0.2342-0.798,0.0824-0.9578-0.24c-0.1686-0.4014-0.0848-0.8024,0.318-0.9606
	c1.803-0.9304,3.6104-1.9096,5.4302-2.907c0.1612-1.2312,0.377-2.4172,0.6718-3.5968c0.318-1.2832,0.7968-2.5662,1.3578-3.9314
	c0.164-0.3192,0.5654-0.4832,0.9636-0.3192c0.3224,0.1582,0.4836,0.5626,0.3224,0.8848c-0.4806,1.28-0.9638,2.484-1.286,3.6878
	c-0.2082,0.8302-0.362,1.6332-0.5034,2.4264c0.9566-0.532,1.9158-1.0732,2.8782-1.6294c-0.0854-0.97,0.0058-2.098,0.3586-3.3598
	c0.3952-1.4472,1.1232-3.0528,2.1618-4.9802c0.2446-0.3956,0.6446-0.4774,0.9638-0.3192c0.3254,0.2368,0.482,0.6414,0.3254,0.9608
	c-1.0446,1.8452-1.689,3.3718-2.092,4.7338c-0.2036,0.8118-0.2916,1.5112-0.3026,2.1466c1.3806-0.7996,2.764-1.6174,4.1506-2.4474
	c-0.0198-1.2194,0.3496-2.7608,1.0504-4.5094c0.2386-0.4014,0.3968-0.7994,0.5608-1.1218c0.1291-0.2603,0.2562-0.5692,0.4263-0.8863
	l0.1363-0.2387v-0.0788c0.1596-0.3196,0.6402-0.4836,0.9624-0.2436c0.3176,0.1614,0.4836,0.5596,0.3176,0.967
	c-0.237,0.3192-0.4046,0.7178-0.5564,1.1218c-0.2416,0.4014-0.406,0.7208-0.4834,1.0462c-0.4774,1.1524-0.795,2.189-0.9474,3.0496
	c1.186-0.7144,2.3566-1.4382,3.5332-2.1802c0.0308-0.8788,0.1688-1.7574,0.4652-2.6422c0.2358-0.9608,0.6386-1.9244,1.1998-2.8884
	c0.167-0.395,0.6428-0.4804,0.9622-0.3102c0.3222,0.2374,0.4804,0.6386,0.2416,0.9546c-0.4788,0.8818-0.801,1.7608-1.0368,2.5666
	c-0.1276,0.4556-0.231,0.9058-0.3116,1.362c3.0998-1.9642,6.1906-3.9984,9.2936-6.0994
	C120.9958,161.1554,121.476,161.2436,121.6374,161.5598z M122.7608,177.848c0.485,0,0.8848,0.161,1.2008,0.48
	c0.3284,0.3226,0.482,0.7268,0.482,1.1222c0,0.4866-0.1536,0.885-0.482,1.122c-0.085,0.0972-0.193,0.1368-0.2888,0.2006
	c-0.0078,0.0032-0.0214,0.0122-0.032,0.0184c-0.1138,0.0698-0.2264,0.1276-0.3586,0.1762c-0.1614,0.0486-0.336,0.085-0.5214,0.085
	c-0.1628,0-0.318-0.0272-0.4622-0.073c-0.2782-0.0668-0.5336-0.164-0.7404-0.3254c-0.2404-0.3188-0.479-0.7172-0.479-1.2038
	c0-0.3954,0.2386-0.7996,0.479-1.1222C121.8804,178.009,122.2802,177.848,122.7608,177.848z M20.4568,152.7242
	c1.5204,1.6752,3.048,3.5542,4.5806,5.5458c1.6121,2.1098,3.1685,4.3965,4.7697,6.7114l0.6893,0.9934
	c3.9088,4.5942,8.6186,7.2242,13.8756,8.4222c5.1057,1.2343,10.8098,1.0606,16.8225-0.0356l0.6693-0.1256l21.8096,5.9348
	c1.043-0.6476,2.0144-1.3406,2.9142-2.0856c-0.4424-0.1824-0.8832-0.3556-1.321-0.5412c-3.2016-0.8454-6.4002-1.7208-9.5988-2.6636
	c-4.0896-1.207-12.4388-4.1746-12.5236-4.1746c-7.0574-6.4974-14.2722-11.3074-21.5772-14.3602
	C34.7136,153.4872,27.7206,152.2742,20.4568,152.7242z M63.9268,160.1338c2.1848,3.8554,5.4228,6.9294,9.254,9.532
	c3.8064,2.6088,8.1786,4.7282,12.834,6.613c0.6598,0.1764,1.3254,0.365,1.9882,0.5322c1.3074-1.2832,2.399-2.697,3.258-4.2296
	c-1.3274-0.5288-2.6452-1.0578-3.9558-1.6142c-0.9666,0.4348-1.9384,0.8026-2.9764,1.0246c-1.1174,0.24-2.323,0.3982-3.4526,0.4804
	c-0.3938,0-0.7222-0.3222-0.7222-0.7236c-0.0728-0.3984,0.2462-0.7208,0.6448-0.7208c1.0458-0.0818,2.1632-0.2368,3.2106-0.4012
	c0.5094-0.1186,0.9988-0.2554,1.4734-0.4194c-1.3214-0.5262-2.6364-1.052-3.9346-1.572c-0.8758,0.3038-1.8928,0.4682-2.9146,0.5502
	c-0.9652,0-2.0004,0-3.048-0.082c-0.4026-0.0822-0.722-0.4044-0.643-0.809c0-0.3952,0.3206-0.6384,0.7252-0.6384
	c1.0384,0.0822,2.0006,0.1614,2.8824,0.0822c0.2098-0.0152,0.4182-0.0396,0.6234-0.0518c-3.226-1.3072-6.3654-2.5812-9.2858-3.8004
	c-0.321-0.0792-0.561-0.5626-0.4028-0.8848c0.1642-0.3894,0.5654-0.5596,0.9624-0.3894c3.2502,1.2894,6.274,2.5328,9.2384,3.7426
	c-0.5398-0.8146-1.8548-1.9822-2.0174-2.0672c-0.158-0.079-1.0352-0.5596-0.9622-0.8786c0.0806-0.4074,0.4044-0.7266,0.8042-0.6448
	c0.2402,0,0.4804,0.0854,0.719,0.2374c0.2464,0.088,0.4822,0.2492,0.7238,0.4074c0.9622,0.7356,1.9748,2.037,2.826,3.7976
	c1.1782,0.4802,2.3624,0.9546,3.539,1.4258c-0.3078-0.394-2.1836-2.3486-2.3372-2.5043l-0.01-0.0099l0.0046-0.0124
	c-0.1764-0.2554-0.2188-0.6536-0.0136-0.9364c0.3116-0.225,0.6766-0.301,0.9866-0.1034c0.1582,0,1.1844,1.1524,1.3454,1.3866
	c0.9882,0.9912,1.835,2.1008,2.355,3.1166c1.4534,0.5864,2.9112,1.1948,4.3598,1.818c0.9034-1.265,1.8822-2.4018,2.9176-3.445
	c-1.3092-1.4198-3.3326-2.624-6.0218-3.5696c-2.8876-0.9936-6.4957-1.6846-10.6898-2.1759l-0.7044-0.0801
	c-2.5404-0.161-4.9972-0.4046-7.46-0.7936C67.9844,161.0004,65.964,160.599,63.9268,160.1338z M169.3382,149.5104
	c-3.9556,0.7326-13.199,1.6174-13.199,1.6174c-1.5276,0.3194-3.0464,0.7266-4.4164,1.1222c-1.438,0.486-2.8002,0.9666-4.0892,1.5292
	c-6.5972,2.7153-11.9189,6.7921-16.0365,12.2096l-0.3825,0.5118l0.0474,0.0364c-1.5964,2.4842-3.3674,4.57-5.6098,6.0962
	c-0.8045,0.5334-2.135,1.2881-2.3703,1.4209l-0.0361,0.0203c6.3378,1.2104,12.1922,1.2832,17.653,0
	c5.3742-1.283,10.3436-3.9282,14.7586-8.0178c4.4118-4.0892,7.6226-7.5464,9.9516-10.4316
	C167.4408,153.2562,168.6812,151.2254,169.3382,149.5104z M27.3634,155.2204c2.8306,1.7026,5.7086,3.3018,8.6092,4.8344
	c-0.0808-0.134-0.1856-0.289-0.266-0.4196c-0.558-0.8788-1.119-1.7636-1.765-2.6482c-0.1522-0.3226-0.079-0.7206,0.2416-0.9606
	c0.3192-0.2404,0.8026-0.1614,0.9654,0.24c0.558,0.7206,1.1264,1.6814,1.7664,2.5602c0.713,1.1126,1.2708,1.9154,1.747,2.624
	c1.476,0.7568,2.9462,1.5108,4.4254,2.2376c-0.2556-0.4076-0.5278-0.818-0.7966-1.2466c-0.5942-0.9198-1.1851-1.8374-1.6851-2.7528
	l-0.2883-0.549l-0.0348,0.009v-0.0728c-0.163-0.3196-0.0792-0.7238,0.3236-0.967c0.3176-0.1612,0.7222,0,0.9608,0.3282
	c0.558,1.0338,1.201,2.1618,1.9246,3.2808c0.6872,0.994,1.3774,2.0614,1.9248,3.0678c0.9375,0.4399,1.8803,0.8784,2.8272,1.3119
	l1.4232,0.6461l-2.9644-4.7764c-0.2446-0.3254-0.0774-0.812,0.2386-0.964c0.2955-0.2257,0.6509-0.1754,0.9014,0.1459l0.0656,0.0943
	l4.1518,6.5828c2.5586,1.1278,5.14,2.2316,7.7198,3.2806c0.4014,0.1582,0.5596,0.5656,0.4014,0.967
	c-0.1628,0.3982-0.561,0.5592-0.8802,0.3982c-0.8816-0.3648-1.7438-0.7328-2.6178-1.0974
	c-2.6224,1.2584-6.8518,1.9032-7.0162,1.9032c-0.3998,0.076-0.7948-0.2404-0.7948-0.5716
	c-0.0838-0.3862,0.1578-0.7998,0.5564-0.8788c0.2384,0,3.6286-0.4834,5.4484-1.219c-0.7763-0.3325-1.5513-0.6663-2.3231-1.005
	l-1.1551-0.5122l-7.1848,1.7724c-0.321,0.0822-0.7222-0.1582-0.8042-0.5564c-0.1421-0.2953,0.0452-0.6598,0.3865-0.777
	l0.0967-0.0256l5.4336-1.344c-1.5676-0.7024-3.127-1.426-4.693-2.1586c-1.2084,0.1336-2.5298,0.2188-3.872,0.2886
	c-1.3638,0.079-2.8066,0.1614-4.0912,0.3252c-0.3952,0.0854-0.722-0.1638-0.798-0.5594c0-0.4014,0.2342-0.8054,0.64-0.8054
	c1.2844-0.1614,2.7214-0.2434,4.1748-0.3196c0.4894-0.0274,0.9924-0.0636,1.4956-0.091c-1.4396-0.7146-2.8824-1.4504-4.316-2.1954
	c-0.9454,0.128-1.9442,0.2068-2.8808,0.2768c-1.0442,0.0792-2.0842,0.1672-3.048,0.3284c-0.3998,0.073-0.7996-0.1612-0.8848-0.5684
	c0-0.3986,0.2386-0.8032,0.643-0.8032c1.0476-0.1608,2.0934-0.2368,3.2124-0.319c0.2646-0.0242,0.523-0.0396,0.7814-0.0638
	c-3.0316-1.6146-6.0522-3.305-9.0472-5.0684c-0.319-0.1612-0.4788-0.6416-0.2416-0.964
	C26.562,155.1444,27.044,155.056,27.3634,155.2204z M155.1754,152.8122c0.3238,0.2464,0.482,0.6448,0.2418,0.967
	c-0.4866,0.9576-0.9624,1.9218-1.198,2.9674c-0.1778,0.523-0.298,1.037-0.3724,1.56c2.5844-1.6542,5.1234-3.3628,7.5892-5.09
	c0.3222-0.2432,0.798-0.158,1.0382,0.1644c0.2464,0.3192,0.164,0.7996-0.1566,1.0338c-2.443,1.663-4.9044,3.2928-7.405,4.889
	c0.1946,0.0332,2.1116,0.1672,2.9094,0.0944c0.403-0.0822,0.7252,0.237,0.806,0.5594c0,0.3982-0.2432,0.7996-0.6414,0.7996
	c-0.888,0.0822-1.7652,0.0822-2.5694,0c-0.7888,0-1.5172-0.1398-2.2926-0.3406c-1.4536,0.9154-2.931,1.8122-4.4284,2.7
	c0.266,0.0456,2.5462,0.3708,3.5118,0.3708c0.4044,0,0.7266,0.3194,0.7266,0.7208s-0.3222,0.7234-0.7266,0.6414
	c-0.9656,0-1.9232-0.079-2.89-0.1578c-0.8044-0.1372-1.6054-0.2892-2.4052-0.5202c-1.6828,0.9458-3.39,1.8456-5.1048,2.7424
	c0.4774,0.1034,0.947,0.1948,1.4154,0.2646c0.9576,0.1642,1.844,0.1642,2.727,0.0792c0.403,0,0.7224,0.3254,0.7998,0.7236
	c0,0.3982-0.3194,0.7176-0.7192,0.7176c-0.9636,0.085-1.926,0-3.0512-0.1522c-0.9454-0.0788-1.9792-0.3038-3.1316-0.6414
	c-1.3968,0.6902-2.8186,1.3864-4.2582,2.0492c0.5686,0.1672,1.1478,0.301,1.6922,0.3528c0.9636,0.079,2.0082,0.079,2.9706-0.082
	c0.4028,0,0.7252,0.2402,0.7996,0.6384c0.0806,0.4014-0.239,0.7236-0.643,0.8088c-1.0384,0.155-2.1636,0.155-3.2004,0.076
	c-1.1264-0.1612-2.1722-0.3984-3.2152-0.8848c-0.073-0.0274-0.1218-0.07-0.1824-0.1154c-1.1326,0.5016-2.262,1.0062-3.4252,1.4834
	c-0.3224,0.1582-0.8026,0-0.8862-0.4042c-0.1626-0.3162,0-0.7206,0.3268-0.8816c3.1302-1.3014,6.1692-2.712,9.1382-4.196
	c-0.0274-1.2192,0.123-2.4354,0.482-3.5816c0.4848-1.2896,1.1248-2.5694,2.0098-3.8524c0.2416-0.3192,0.6396-0.4046,0.9608-0.1672
	c0.3238,0.1672,0.4056,0.6446,0.164,0.9666c-0.804,1.1282-1.3636,2.3262-1.7682,3.451c-0.2216,0.8362-0.3616,1.636-0.404,2.4478
	c1.8532-0.9486,3.6788-1.9156,5.4772-2.925c0.1672-1.6844,0.4076-3.3688,0.8636-5.0624c0.0836-0.3192,0.567-1.7604,0.6414-2.0796
	c0.1644-0.4044,0.5658-0.5686,0.964-0.4044c0.3192,0.0822,0.5626,0.4836,0.4028,0.8848c-0.1626,0.4012-0.561,1.5992-0.6416,2.0096
	c-0.371,1.2226-0.596,2.4962-0.719,3.7886c1.6556-0.9576,3.2912-1.946,4.9074-2.9554c0.0408-1.0034,0.263-1.9976,0.5428-2.925
	c0.3224-1.125,0.8044-2.1648,1.3712-3.2048C154.3742,152.736,154.8578,152.6572,155.1754,152.8122z M147.4754,40.4902v88.7368
	c-0.4834,11.8762-6.981,17.0088-18.138,17.173c-6.8108,0.1578-13.9544,0.404-20.7772,0.5564
	c-7.3824,1.204-11.2332,6.1842-13.3938,11.7178c-0.243-0.5652-0.4818-1.128-0.7282-1.6872
	c-1.9608-4.0055-5.3841-7.9354-12.0707-9.905l-0.4407-0.1257L62.5862,146.4c-13.3426,0.5508-22.2042-4.8703-23.2371-20.0811
	l-0.0289-0.4639V43.3722l3.5332-2.882H147.4754z M25.4798,122.0518c-1.6844,3.5296-2.434,7.5068-2.2882,11.9916
	c0.146,4.6974,1.2482,9.9484,3.2126,15.847c0.307,0.5018,0.6034,0.9944,0.8786,1.4958c2.0584,0.1672,4.1076,0.4746,6.1388,0.9184
	c-0.9502-2.1132-1.806-4.2292-2.5814-6.3638c-0.8136-0.3132-1.5082-0.6934-2.1908-1.0674c-0.8086-0.4012-1.6054-0.8026-2.493-1.1248
	c-0.3164-0.1582-0.4776-0.5654-0.3938-0.9638c0.1548-0.3192,0.561-0.4834,0.9576-0.3192c0.8864,0.3192,1.6844,0.7176,2.5708,1.207
	c0.2948,0.1338,0.5974,0.2796,0.903,0.4318c-0.1916-0.5748-0.3952-1.1464-0.5808-1.718c-0.2964-0.8848-0.5838-1.7786-0.8558-2.6694
	c-0.1642-0.0732-0.3694-0.1492-0.5928-0.2162c-1.1206-0.4924-2.3246-1.289-3.3676-2.1676c-0.3192-0.2464-0.4042-0.7208-0.0818-0.958
	c0.2446-0.3282,0.6428-0.4104,0.9636-0.1672c0.8742,0.7298,1.739,1.2952,2.5586,1.7424c-0.6278-2.1738-1.1994-4.366-1.6754-6.5614
	c-0.0776-0.3954,0.1582-0.7146,0.5626-0.7966c0.3238-0.1706,0.7162,0.082,0.801,0.477c0.4546,2.0434,0.9914,4.0898,1.589,6.148
	c0.0364-0.0908,0.0548-0.1946,0.0986-0.2854c0.3222-0.8032,0.7224-1.6088,1.3668-2.3324c0.2386-0.3192,0.6356-0.3192,0.9578-0.0792
	c0.3206,0.2464,0.3206,0.7178,0.079,0.9702c-0.4788,0.6382-0.7982,1.277-1.125,1.9154c-0.2402,0.7268-0.3954,1.3654-0.4788,2.0098
	c-0.023,0.088-0.0882,0.1884-0.1658,0.2676c0.2356,0.7662,0.4744,1.5266,0.7328,2.2986c0.1398,0.447,0.2964,0.8816,0.4468,1.3166
	c0.1144-0.2492,0.2388-0.4986,0.3528-0.7542c0.3986-0.9638,0.8786-1.9246,1.283-2.8944c0.1582-0.3192,0.5596-0.4714,0.9624-0.3192
	c0.3222,0.085,0.4774,0.5654,0.3222,0.8908c-0.4056,0.8816-0.8042,1.9218-1.2846,2.8852c-0.3268,0.7146-0.6476,1.3806-0.9746,2.0708
	c0.5142,1.4078,1.0506,2.8186,1.6194,4.2052c0.5866-1.408,1.1524-2.8492,1.7604-4.424c0.1566-0.3316,0.5626-0.4866,0.9624-0.4046
	c0.3192,0.1552,0.5622,0.5596,0.4044,0.961c-0.6242,1.5115-1.2998,3.204-1.9875,4.8687l-0.2705,0.6471
	c0.0339-0.0856,0.04-0.1162-0.0572,0.0691l-0.0474,0.0914c0.2264,0.514,0.4364,1.034,0.6766,1.5444
	c1.3164,0.3378,2.6238,0.721,3.9252,1.1708c0.0274-2.9584-0.2236-5.9378-1.0368-9.1152c-0.9654-3.372-2.4886-6.902-4.8938-10.5112
	c-1.5276-1.8456-3.0526-3.8586-4.4102-6.0992C27.535,126.3266,26.4528,124.2862,25.4798,122.0518z M162.7206,117.6942
	c-1.0294,3.1774-2.1818,6.282-3.5318,9.128c-0.2354,0.6386-1.8426,3.7702-1.8426,3.7702c-2.809,4.0072-4.7338,7.7776-5.9378,11.3078
	c-1.1496,3.3656-1.6344,6.5064-1.61,9.5014c0.4984-0.1736,6.9262-1.8064,6.981-1.8122c0.117-0.2402,0.237-0.4868,0.3586-0.742
	c-0.8648-1.0946-1.613-2.1466-2.2074-3.2562c-0.1534-0.2432-0.5564-1.201-0.6398-1.3592c-0.1582-0.4044,0-0.8056,0.4056-0.9608
	c0.3212-0.088,0.7208,0.0792,0.879,0.4014c0.082,0.24,0.4864,1.0368,0.5638,1.2862c0.4852,0.7814,1.0446,1.6052,1.6496,2.42
	c0.0396-0.088,1.3088-3.618,1.3438-3.7274c-0.4088-0.5078-0.8196-1.0914-1.2284-1.9068c-0.482-0.9636-1.0444-2.0946-1.6024-3.694
	c-0.1626-0.3192,0.079-0.7174,0.3986-0.8788c0.3982-0.158,0.7994,0.0762,0.9682,0.3984c0.5564,1.5234,1.0338,2.6514,1.5202,3.533
	c0.1478,0.3044,0.3192,0.5628,0.4864,0.8118c0.5214-1.7788,0.9564-3.606,1.3214-5.4634c-0.5124-0.4382-1.0186-0.958-1.408-1.6084
	c-0.5638-0.7998-0.9606-1.6848-1.3636-2.7276c-0.1582-0.4044,0-0.8026,0.403-0.9638c0.3968-0.0824,0.8024,0.0822,0.88,0.4836
	c0.4014,0.8846,0.8016,1.678,1.2012,2.408c0.1978,0.2584,0.4014,0.4986,0.605,0.7234c0.4834-2.7788,0.812-5.6248,1.0034-8.5072
	c0.0806-0.4046,0.403-0.7268,0.8028-0.6414c0.3982,0,0.637,0.319,0.637,0.7174c-0.219,2.8792-0.5506,5.7042-1.0264,8.4586
	c0.1246-0.1092,0.2556-0.222,0.3894-0.3528c0.637-0.5562,1.3652-1.283,2.1632-2.0856c0.2432-0.3222,0.7236-0.3222,0.9686-0.0882
	c0.3176,0.3284,0.3176,0.7298,0.0774,1.0458c-0.8028,0.891-1.525,1.6058-2.2486,2.2472c-0.599,0.477-1.1964,0.8756-1.7026,1.1372
	c-0.3692,1.8574-0.7952,3.682-1.3014,5.4546c0.359-0.219,0.7206-0.4864,1.0764-0.8118c0.8878-0.7208,1.8518-1.6026,2.732-2.6514
	c0.2384-0.2372,0.7236-0.3192,0.9622,0c0.3208,0.2494,0.3208,0.7266,0.0792,0.9608c-0.9608,1.0522-1.9216,2.0098-2.8856,2.8156
	c-0.8238,0.687-1.6934,1.2344-2.5266,1.5324c-0.041,0.1306-0.926,2.5598-1.3258,3.5998c-0.2354,0.6232-0.5108,1.2496-0.7888,1.8668
	c2.0082-0.1488,4.0316-0.3464,6.0626-0.6048c0.023-0.0702,0.0532-0.1488,0.1004-0.2132c4.3344-6.5032,6.0948-14.6032,3.1302-22.6244
	c-0.5608-1.532-1.3636-3.1376-2.3274-4.6608C164.6042,120.0874,163.7346,118.8682,162.7206,117.6942z M145.2286,42.74H43.6498
	v83.115c0,11.393,5.6994,16.0452,14.76,16.5314c7.8658,0,15.6512,0,23.517,0.5594c4.731,0.3254,8.9786,2.4022,12.5114,6.7438
	c0.1598,0.3132,0.4014,0.5596,0.6402,0.876c3.0556-4.7282,7.3854-6.817,13.4818-7.6198c7.4626-0.5594,14.9224-0.5594,22.4646-0.5594
	c10.0674-0.7176,14.4981-6.3559,14.2166-16.1617l-0.0128-0.3697V42.74z M15.7332,145.433c0.1794,0,0.3514,0.0362,0.517,0.0912
	c0.2858,0.0732,0.558,0.1856,0.7662,0.3862c0.397,0.3254,0.5658,0.8088,0.5658,1.286c0,0.4834-0.1688,0.964-0.5658,1.2862
	c-0.3206,0.3196-0.8058,0.5596-1.2832,0.5596c-0.4846,0-0.9666-0.24-1.2844-0.5596c-0.4044-0.3222-0.567-0.8028-0.567-1.2862
	c0-0.4772,0.1626-0.9606,0.567-1.286c0.1992-0.2006,0.4714-0.313,0.7614-0.3862C15.379,145.4692,15.5508,145.433,15.7332,145.433z
	 M174.7714,143.2012c0.111,0.0122,0.2206,0.0306,0.3176,0.058c0.3318,0.0728,0.6418,0.1792,0.8698,0.4134
	c0.3194,0.3162,0.561,0.7996,0.561,1.2862c0,0.4742-0.2416,0.9516-0.561,1.277c-0.3222,0.322-0.8074,0.5682-1.3652,0.5682
	c-0.4864,0-0.9622-0.2462-1.2844-0.5682c-0.3196-0.3254-0.5596-0.8028-0.5596-1.277c0-0.4866,0.24-0.97,0.5596-1.2862
	c0.199-0.2036,0.4742-0.3222,0.7658-0.3954C174.2394,143.2226,174.7426,143.2012,174.7714,143.2012z M2.1318,104.6142
	c-0.263,7.4706,0.4652,14.0166,2.2846,19.5564c2.0086,5.7772,5.2176,10.3498,9.95,13.5608c3.7448,2.5694,6.875,5.476,9.4686,8.6534
	c-1.2376-4.4088-1.9702-8.5014-2.0846-12.2656c-0.0502-1.5326,0.0168-2.9948,0.1704-4.4176
	c-0.0822-0.0854-0.1488-0.1856-0.1704-0.3134c-2.3304-7.0602-6.5018-13.4754-12.5922-19.2584
	c-1.2086-1.0398-2.4948-2.1618-3.8552-3.2078C4.2724,106.1406,3.2204,105.3686,2.1318,104.6142z M452.3097,111.0261
	c3.1915,0,8.1213,1.7881,8.277,9.1447l0.0038,0.3603l0.0003,14.8658c0.0032,2.4205,0.0381,5.5991,0.4229,7.3513L461.0741,143
	h-4.0202c-0.5594-1.3342-0.7145-4.9426-0.7249-7.8465l-0.0005-0.3196v-13.8417c0-3.5988-1.4048-6.598-5.4236-6.598
	c-2.8097,0-4.9889,1.8924-5.7158,4.1522c-0.1688,0.4452-0.2637,1.0305-0.2848,1.6333l-0.0045,0.2591v13.4266h-4.262v-16.2875
	c0-2.1186-0.1278-4.2398-0.5826-5.7507l-0.0954-0.2939h3.8259c0.4013,0.8089,0.6394,2.0512,0.6736,3.3621l0.0043,0.3289h0.0964
	C445.7216,113.1029,448.4349,111.0261,452.3097,111.0261z M398.5909,111.0261c3.1914,0,8.1213,1.7881,8.277,9.1447l0.0038,0.3603
	l0.0003,14.8658c0.0032,2.4205,0.0381,5.5991,0.4229,7.3513L407.3552,143h-4.0202c-0.5594-1.3342-0.7145-4.9426-0.7249-7.8465
	l-0.0006-0.3196v-13.8417c0-3.5988-1.4048-6.598-5.4236-6.598c-2.8097,0-4.9889,1.8924-5.7158,4.1522
	c-0.1688,0.4452-0.2637,1.0305-0.2848,1.6333l-0.0045,0.2591v13.4266h-4.262v-16.2875c0-2.1186-0.1278-4.2398-0.5826-5.7507
	l-0.0954-0.2939h3.8259c0.4012,0.8089,0.6394,2.0512,0.6736,3.3621l0.0043,0.3289h0.0964
	C392.0028,113.1029,394.716,111.0261,398.5909,111.0261z M348.1168,111.0268c6.5377,0,10.7032,4.6595,10.7032,11.3498
	c0,7.8894-5.1818,11.9955-10.7032,11.9955c-2.9463,0-5.5302-1.1178-6.9254-3.0629l-0.1449-0.2116h-0.1454l0.0003,3.9588
	c0.0044,2.4496,0.0572,5.8405,0.3423,7.6791l0.0446,0.2638h-4.0677c-0.4206-1.3342-0.5253-4.4266-0.5322-7.7486l-0.0004-10.7051
	c0-5.7678,1.5488-8.3505,3.3897-10.1982C341.8699,112.5026,344.5817,111.0268,348.1168,111.0268z M298.9029,100.5983
	c4.7946,0,8.4751,3.2298,8.4751,8.0277c0,3.4017-1.9571,5.9767-4.1074,7.0981l-0.2021,0.1009v0.1845
	c3.6805,0.7379,7.1667,3.691,7.1667,8.8132c0,6.1815-4.9385,9.5497-10.1203,9.5497c-3.116,0-5.4718-0.9351-7.2408-2.6012
	l-0.2181-0.2121h-0.0964l0.0003,3.4558c0.0046,2.4844,0.0632,5.8418,0.4688,7.7152l0.0635,0.2696h-3.9713
	c-0.5582-1.4168-0.7145-4.3651-0.7262-7.4549l-0.0007-0.3869v-21.2713c0-6.3674,1.792-9.1807,3.6316-10.8425
	C293.6722,101.5682,295.8039,100.5983,298.9029,100.5983z M188.9084,98.88c-3.325,1.66-6.2028,3.5844-8.6638,5.7524
	c-0.0686,0.222-0.2448,0.374-0.482,0.4198c-3.556,3.2532-6.215,7.0296-8.059,11.2558c-0.64,1.4474-1.1186,2.9704-1.6038,4.494
	c-0.3998,1.6084-1.0036,4.9802-1.023,5.0256c1.8926,5.3454,1.862,10.721,0.4256,15.6528c2.8882-1.2528,5.7054-2.7912,8.4586-5.7528
	c3.1166-3.3626,9.0698-17.574,9.0698-17.574c0.7206-3.9314,1.6054-9.8664,1.847-14.9168c0-1.0488,0.0764-2.0096,0.0764-2.8944
	C188.9542,99.8314,188.931,99.354,188.9084,98.88z M142.6576,102.662v26.8084c-0.2364,6.3975-5.4549,10.9277-12.8981,10.4509
	l-0.3398-0.0251h-20.5404v-2.0066h20.5404c3.3728,0.2379,8.0579-1.753,8.26-3.3428l0.0068-0.1054l-28.8072-0.0788v-1.9278h30.0084
	c0.0764-0.3024,0.5101-1.759,0.5555-3.0674l0.0039-0.2165h-30.5678v-1.9276l30.5678-0.082v-3.369h-30.5678v-1.9246h30.5678
	l0.085-3.9314h-30.5706v-1.9306h30.5706v-3.9284h-30.5706v-2.0828h30.5706v-3.7002h-30.5706v-3.6124H142.6576z M81.2834,102.662
	v37.2342H58.0162c-1.9923,0.0785-4.201-0.7242-5.585-1.8445l-0.192-0.1622h25.8322v-3.4482H50.0728
	c-0.7387-0.5909-1.2025-1.3118-1.4-1.8612l-0.0472-0.1454h29.4458v-3.2838H47.657c-0.2062-0.4945-0.2889-1.2292-0.3063-1.784
	l-0.0037-0.2256h30.7244v-3.369H47.347v-1.9246h30.7244v-3.9314H47.347v-1.9306h30.7244v-3.9284H47.347v-2.0828h30.7244v-3.7002
	H47.347v-3.6124H81.2834z M6.0206,110.8594c1.3544,2.396,2.6998,4.7978,4.0256,7.1938c-0.0078-0.0456-0.0108-0.0942-0.0108-0.1368
	c-0.1301-0.9632-0.2573-1.9284-0.3443-2.8503l-0.0571-0.6825v-0.0822c0-0.3192,0.3196-0.7178,0.7224-0.7178
	c0.3966,0,0.7188,0.3194,0.7188,0.7178c0.0838,1.1248,0.248,2.25,0.3224,3.454c0.1644,1.1186,0.3742,3.393,0.3616,3.4538
	c0.52,0.9608,1.0584,1.9248,1.5646,2.8824c0.0624,0.1156,0.1276,0.2372,0.1884,0.3526c-0.1117-1.2637-0.2827-2.5739-0.4428-3.7229
	l-0.0678-0.4819v-0.076c-0.0776-0.4044,0.2384-0.7268,0.6382-0.8026c0.2903,0,0.6466,0.1921,0.775,0.5274l0.034,0.117v0.073
	c0.2282,2.1408,0.6644,5.0838,0.6416,7.3034c0.6582,1.222,1.3286,2.4566,1.9656,3.673c0.0184-0.365,0.0396-0.7268,0.0396-1.1068
	c-0.0792-1.122-0.1598-2.2408-0.2416-3.3688c-0.0854-0.3986,0.2416-0.724,0.5654-0.809c0.397,0,0.7998,0.2522,0.7998,0.6478
	c0.1608,1.207,0.2416,2.3288,0.2416,3.53c0.0712,1.0944,0,2.262-0.2312,3.4358c0.6126,1.2132,1.2452,2.4262,1.835,3.6302
	c0.1612,0.3922,0,0.7968-0.3176,0.9576c-0.406,0.1614-0.809,0.0792-0.9672-0.319c-0.6154-1.262-1.2692-2.533-1.917-3.8038
	c-0.1976-0.0518-0.3828-0.1212-0.5714-0.2066c-0.3192-0.0792-0.643-0.2432-0.9624-0.3286c-1.7604-0.7174-3.4526-1.678-5.2176-2.8916
	c-0.3192-0.2368-0.3968-0.629-0.1578-0.9514c0.1578-0.3194,0.6382-0.3984,0.9634-0.1644c1.6848,1.1158,3.2902,2.007,4.8986,2.6484
	c0.0348,0.0216,0.0806,0.0336,0.117,0.0516c-0.6324-1.2312-1.2846-2.4658-1.9294-3.7062c-1.0122-0.3254-2.0858-0.8664-3.0862-1.4776
	c-1.1248-0.5626-2.2454-1.125-3.212-1.4412c-0.318-0.0822-0.558-0.4868-0.4774-0.8908c0.1594-0.3196,0.5594-0.5568,0.9624-0.3986
	c1.0396,0.3222,2.1664,0.885,3.372,1.5266c0.4666,0.252,0.927,0.4804,1.3894,0.69c-0.2782-0.526-0.5504-1.049-0.8316-1.5718
	c-0.5564-1.04-1.1538-2.104-1.727-3.1502c-0.7936-0.316-1.5524-0.6018-2.3672-0.9424c-1.0428-0.4044-2.081-0.8848-3.0434-1.2072
	c-0.3206-0.0758-0.5686-0.4804-0.406-0.8818c0.1688-0.4012,0.5642-0.5624,0.8864-0.4012c0.9624,0.3192,2.0036,0.7204,3.0404,1.1248
	c0.2752,0.1096,0.5366,0.216,0.8028,0.3254C7.8146,116.928,6.3,114.2344,4.745,111.498c-0.1688-0.3192-0.0834-0.7204,0.3178-0.964
	C5.3746,110.373,5.7802,110.449,6.0206,110.8594z M184.8614,105.7182c0.319,0.155,0.485,0.5562,0.4028,0.8816
	c-1.3102,3.0708-2.5586,5.9654-3.7732,8.7748c0.0302-0.009,2.6512-1.712,3.7732-2.7576c0.3192-0.2374,0.8028-0.2374,1.0444,0.0818
	c0.2372,0.2404,0.2372,0.7176-0.0818,0.9638c-1.2042,1.1224-2.65,2.165-4.0138,2.8888c-0.319,0.161-1.3074,0.5988-1.5246,0.6688
	c-0.6218,1.4444-1.2434,2.8672-1.8578,4.284c0.5352-0.2826,1.0764-0.593,1.6174-0.9364c1.043-0.7298,2.1696-1.6116,3.3734-2.7332
	c0.239-0.2404,0.7238-0.2404,0.961,0c0.322,0.319,0.322,0.7962,0,1.0394c-1.2056,1.2042-2.4112,2.0862-3.612,2.8886
	c-1.0158,0.7326-2.1102,1.2558-3.1988,1.712c-0.406,0.9272-1.8272,4.2414-2.1374,4.9618c0.4576-0.261,0.9198-0.538,1.4108-0.8116
	c1.0366-0.6476,2.1588-1.4444,3.3676-2.326c0.3206-0.24,0.7204-0.1672,0.962,0.1612c0.2386,0.31,0.158,0.7996-0.1642,0.9578
	c-1.2024,0.9638-2.3228,1.6844-3.4494,2.408c-1.0626,0.6812-2.0524,1.219-3.0376,1.7484c-0.5578,1.289-1.1264,2.5784-1.6964,3.8672
	c-0.1536,0.4018-0.5578,0.5626-0.8802,0.4018c-0.4044-0.1614-0.5626-0.5628-0.4044-0.958c0.5838-1.3254,1.1492-2.6454,1.7102-3.9618
	c-0.5686-1.2648-1.0126-2.5874-1.3058-3.9862c-0.3238-1.447-0.6432-2.8882-0.8042-4.3328c-0.0792-0.398,0.2416-0.7176,0.5608-0.8024
	c0.406,0,0.8012,0.24,0.8012,0.6414c0.2464,1.362,0.4848,2.8126,0.8086,4.1748c0.1904,0.8026,0.4456,1.6386,0.7316,2.4718
	c0.3422-0.8028,1.8028-4.1656,2.1816-5.0472c-1.1634-1.6782-1.9808-3.4816-2.437-5.2874c-0.0822-0.4014-0.1566-0.8058-0.1566-1.1252
	c-0.0621-0.3258-0.1281-0.644-0.1521-0.9637l-0.0093-0.2403v-0.082c0-0.3224,0.318-0.7206,0.6402-0.7206
	c0.4012,0,0.8026,0.3194,0.8026,0.7206c0,0.3192,0.076,0.7238,0.076,1.046c0.0838,0.3222,0.163,0.7234,0.2464,1.043
	c0.3148,1.3802,0.8832,2.7638,1.654,4.071c0.7416-1.7148,1.4684-3.4234,2.1968-5.105c-0.672-1.7938-0.9774-3.7094-1.122-5.6216
	c-0.0652-0.3147-0.0797-1.5987-0.0829-2.191l-0.0009-0.2994c0-0.4042,0.3208-0.7238,0.6418-0.7238
	c0.4046,0,0.725,0.3196,0.725,0.7238c0,0.0788,0.0776,2.0858,0.0776,2.405c0.1082,1.2408,0.3192,2.481,0.6188,3.6762
	c1.2344-2.8826,2.4262-5.686,3.5574-8.3314C184.0604,105.7182,184.466,105.5536,184.8614,105.7182z M324.4791,111.0259
	c2.9062,0,5.1974,0.5438,6.8725,1.5518l0.2466,0.1547l-0.9198,2.6764c-0.9687-0.5996-3.4862-1.3836-5.8597-1.3836
	c-3.2444,0-5.4236,1.2928-5.4236,3.3221c0,2.1598,2.7147,3.1345,6.2631,3.1819l0.2746,0.0018h2.8082v2.907h-2.9536
	c-4.2131,0-7.361,1.1069-7.361,3.7833c0,2.6303,2.9047,4.06,6.3434,4.06c2.4548,0,5.2205-0.8452,6.6858-1.6049l0.1916-0.103
	l0.7744,2.7686c-1.7921,1.153-5.2782,2.0307-8.5715,2.0307c-4.6981,0-9.8799-1.7525-9.8799-6.7839
	c0-2.693,2.2503-4.9514,5.543-5.538l0.2692-0.0439v-0.2306c-3.1004-0.6457-4.6492-2.4905-4.6492-4.7057
	C315.1332,114.1174,318.2322,111.0259,324.4791,111.0259z M436.5154,111.0264l-0.1454,3.0915l-0.2554-0.0007
	c-1.0935-0.0061-2.5823-0.0516-5.5338-0.1693l-0.3613-0.0145v0.1845c2.7607,1.8001,4.3585,5.0746,4.3585,8.4428
	c0,8.2122-5.9087,11.811-11.2344,11.811c-6.3448,0-11.2372-4.3828-11.2372-11.4406c0-7.3607,4.8365-11.7229,11.7343-11.8995
	l0.3248-0.0052H436.5154z M266.3539,111.5338c0.418,0.4862,0.6574,1.6501,0.6767,3.9001l0.0013,0.2997v9.0885
	c0,4.475,2.7607,6.1815,5.3271,6.1815c4.0677,0,6.1994-3.9677,6.1994-10.3798c0-4.0278-0.9569-7.7073-1.5005-8.9779l-0.0497-0.112
	h3.9713c0.8233,1.4758,1.7431,5.0299,1.7431,8.7195c0,6.5519-2.2267,14.1184-10.7018,14.1184c-5.0442,0-9.0589-2.8045-9.1982-8.6786
	l-0.0038-0.3176l-0.0004-6.7309c-0.0067-3.5012-0.104-5.7397-0.4868-6.9729l-0.0454-0.1378H266.3539z M241.2138,102.7675v14.9947
	h0.1454c0.7269-0.9993,1.4528-1.9345,2.151-2.8064l0.4154-0.5156l9.9763-11.6726h5.2307l-11.8159,13.196l12.7356,17.9017h-4.9874
	l-10.7507-15.2728l-3.1004,3.4157v11.8571h-4.2131v-31.0977H241.2138z M365.3627,111.5338l4.5038,12.5503
	c0.6465,1.6526,1.1571,3.2422,1.7017,4.8479l0.3322,0.966h0.1454c1.9374-3.5988,6.054-11.1206,6.054-16.2889
	c0-0.5903,0-1.1511-0.0251-1.6824l-0.0239-0.3929h4.0202c0.0475,0.4612,0.1454,1.0608,0.1454,1.6603
	c0,6.1822-4.3059,13.5536-8.4814,20.2184l-0.2845,0.4533h-4.0202l-8.5715-22.332H365.3627z M423.4875,114.0717
	c-4.891,0-7.0702,4.4304-7.0702,8.6734c0,4.8901,2.9536,8.5826,7.0227,8.5826c3.8734,0,6.9249-3.6925,6.9249-8.7671
	C430.3649,118.7774,428.3311,114.0717,423.4875,114.0717z M298.5157,103.8281c-3.8483,0-5.9258,3.1091-6.0029,9.2402l-0.0022,0.3571
	v14.1184c1.1141,1.7079,3.4876,3.691,6.8284,3.691c3.8748,0,6.6341-2.7225,6.6341-6.4121c0-4.4289-3.2919-6.6917-7.5539-6.83
	c-0.3271-0.0346-0.6542-0.0173-0.9813-0.0065l-0.3271,0.0065v-2.7672c0.2907,0,0.5326-0.0476,0.8233-0.0922
	c3.6819-0.232,5.5215-2.9531,5.5215-5.9062C303.4557,105.951,301.3729,103.8281,298.5157,103.8281z M347.7771,114.395
	c-3.2801,0-6.7474,2.5355-6.8724,8.4781l-0.0035,0.3336v1.8909c0,0.5549,0.0475,1.1083,0.1929,1.6171
	c0.7758,2.5366,3.3423,4.4736,6.3448,4.4736c4.5038,0,7.1192-3.691,7.1192-8.7195C354.558,118.086,352.137,114.395,347.7771,114.395
	z M26.1258,74.2732c-1.3288,0.7174-2.601,1.5628-3.8174,2.6422c-1.365,1.283-2.7212,2.8034-3.9284,4.7338
	c-0.0272,0.0276-0.0574,0.0456-0.0834,0.0762c0.015,3.4814-0.5566,6.9504-2.481,10.675c0,0-1.5416,3.229-2.247,4.9014
	c-1.099,2.5022-2.2014,5.0078-3.372,6.9962c-0.0852,1.338-0.1398,4.8194-0.0852,4.868c0.2054,0.1976,0.3864,0.389,0.5868,0.5776
	c3.305-5.3998,6.525-11.8702,9.2828-19.432c0.5624-1.523,1.049-3.0464,1.6068-4.6486c0.4758-1.5266,0.9624-3.135,1.3608-4.8162
	c0.1656-0.3954,0.567-0.6418,0.8864-0.4806c0.3996,0.0852,0.6428,0.4806,0.5578,0.8786c-0.2144,0.7298-0.4364,1.4808-0.6628,2.2166
	c0.3708-0.2736,0.7526-0.5442,1.1508-0.7752c0.3982-0.1582,0.798-0.076,0.9592,0.2462c0.1612,0.4012,0.0774,0.8088-0.2446,0.9608
	c-0.558,0.3192-0.9562,0.6386-1.4382,1.0432c-0.4044,0.325-0.809,0.8026-1.2086,1.283c-0.0428,0.0606-0.0898,0.0912-0.1414,0.1276
	c-0.3544,1.1248-0.7236,2.2804-1.1112,3.4174c0.696-0.4622,1.4624-0.912,2.3744-1.2952c0.3224-0.1582,0.7266-0.082,0.8894,0.3194
	c0.1598,0.3222,0.0776,0.8026-0.3206,0.9668c-0.8864,0.398-1.6058,0.7966-2.3308,1.207c-0.637,0.4742-1.125,0.8758-1.5216,1.356
	c-0.0062,0.0124-0.0274,0.0124-0.0352,0.0246c-0.4468,1.1554-0.9014,2.2924-1.3636,3.393c0.117-0.0638,0.234-0.152,0.359-0.21
	c0.7964-0.4804,1.5172-0.7204,2.3166-0.9576c0.4044-0.079,0.809,0.1582,0.885,0.5564c0.0848,0.3194-0.1582,0.7206-0.5566,0.8058
	c-0.6416,0.152-1.286,0.474-2.008,0.7968c-0.6264,0.395-1.3258,0.86-2.0312,1.4106c-0.6904,1.5568-1.394,3.0618-2.1178,4.521
	c0.7054-0.4346,1.4232-0.8754,2.2258-1.3528c0.319-0.237,0.7188-0.079,0.9592,0.237c0.1672,0.3226,0.0822,0.7266-0.2404,0.9672
	c-1.0412,0.6414-2.1632,1.283-3.2074,2.0066c-0.0806,0-0.0806,0-0.9608,0.5594c-0.0106,0-0.0122,0-0.02,0.003
	c-1.0534,2.013-2.1374,3.9222-3.2348,5.7102c0.4302,0.4408,0.8526,0.8846,1.2646,1.338
	c6.0782-5.6526,10.2706-11.6882,12.4966-18.1246C27.5928,87.7698,27.8072,81.2328,26.1258,74.2732z M161.1334,72.4182
	c-2.051,6.3974-2.4554,12.0346-1.6254,17.0086c0.961,5.2024,3.2796,9.6842,6.5524,13.5274
	c1.2634,1.1038,2.5296,2.1374,3.7978,3.1712c1.3772,1.0824,2.7608,2.2378,4.0892,3.3384c0.5854-0.8178,1.2118-1.6174,1.8732-2.393
	c-1.2316-1.9096-2.4068-3.8278-3.5212-5.7464c-1.2358-0.538-6.0472-3.1468-7.3334-4.0226c-0.327-0.2464-0.403-0.6478-0.1614-0.97
	c0.239-0.322,0.643-0.4012,0.9658-0.2492c1.196,0.891,4.7656,2.849,5.345,3.1288c-0.818-1.4778-2.7716-5.2664-2.9752-5.6554
	c-1.0626-0.2584-2.1194-0.7114-3.1742-1.3136c-1.043-0.7236-2.168-1.5294-3.2078-2.4112c-0.3222-0.24-0.3222-0.6444-0.0822-0.9636
	c0.242-0.3194,0.6416-0.3194,0.9622-0.079c1.0432,0.8026,2.083,1.6084,3.0514,2.1738c0.532,0.3192,1.0398,0.5838,1.5384,0.7936
	c-1.619-3.299-3.0726-6.6344-4.43-10.0244c-0.1598-0.3226,0-0.7268,0.3224-0.8848c0.3982-0.1614,0.8026,0,0.9606,0.398
	c1.3286,3.2534,2.7412,6.4674,4.2796,9.6596c0.0728-0.3374,0.134-0.6962,0.2142-1.0732c0.1644-1.362,0.3226-2.8914,0.4018-4.4146
	c0.085-0.3954,0.3964-0.6384,0.8026-0.6384c0.3998,0,0.6428,0.4012,0.6428,0.7204c-0.0806,1.5264-0.243,3.1288-0.4804,4.494
	c-0.1276,1.1644-0.3618,2.1558-0.6216,2.8428c0.2066,0.4166,2.3518,4.4542,3.2548,6.0446c0.1808-0.879,0.3194-1.9918,0.4148-3.2686
	c0.0838-0.4044,0.1614-2.9706,0.1614-2.9706c0-0.3984,0.3222-0.7208,0.7204-0.7208c0.3998,0,0.7222,0.3224,0.7222,0.7208
	c0,0.0792-0.1596,2.5662-0.1596,3.1226c-0.1384,2.0946-0.4592,3.828-0.859,4.8738c1.0338,1.7878,2.1118,3.5638,3.226,5.3362
	c0.6384-0.6782,1.295-1.341,2.0036-1.9794c-0.2646-3.6242-0.9758-7.2394-2.2848-10.7876c-1.3831-3.6153-3.4279-7.1465-6.477-10.6054
	l-0.422-0.4712v-0.0822c-0.3436-0.3952-0.6886-0.7874-1.0308-1.1856c-0.1064-0.067-0.1988-0.1734-0.26-0.2952
	c-1.102-1.2678-2.2058-2.5478-3.364-3.8096C163.6492,75.307,162.3572,73.8656,161.1334,72.4182z M328.7908,102.2137l-4.0202,6.598
	h-2.9061l2.6154-6.598H328.7908z M10.2272,55.3004c-2.3474,4.059-3.6138,7.5494-5.005,11.5052
	c-0.409,1.2379-0.884,2.5964-1.4172,3.9684l-0.2714,0.6866l-0.0154-0.0092c-3.086,11.6908,5.9988,31.0742,6.011,31.1228
	c0.9196-1.724,1.835-3.746,2.7546-5.8468c0.7178-1.6818,2.3232-5.0536,2.3232-5.0536c3.0512-5.853,2.4094-11.3076,1.6844-17.2486
	c-0.1229-0.8125-0.2458-1.6307-0.3321-2.4798l-0.0573-0.643h-0.0104c-0.967-3.6942-1.9292-6.7438-2.89-9.471
	C12.1868,59.5844,11.3036,57.462,10.2272,55.3004z M1.9356,96.654c0.1764,0,0.3466,0.0308,0.5154,0.0882
	c0.2888,0.0732,0.5594,0.1918,0.76,0.3892c0.3595,0.2868,0.5244,0.7029,0.5566,1.1251l0.006,0.1583H3.696
	c0,0.427-0.1621,0.8299-0.4202,1.1362l-0.1012,0.1102l0.0364,0.0396c-0.3192,0.3224-0.7996,0.5566-1.2754,0.5566
	c-0.4898,0-0.967-0.2342-1.2876-0.5566c-0.3998-0.3192-0.5654-0.8056-0.5654-1.286c0-0.4744,0.1656-0.9608,0.5654-1.2834
	c0.2036-0.1974,0.4756-0.316,0.7662-0.3892C1.5798,96.6848,1.747,96.654,1.9356,96.654z M184.2972,93.3644
	c0.4852,0.0792,0.967,0.2342,1.2862,0.5626c0.3238,0.3192,0.5612,0.7996,0.5612,1.28c0,0.4836-0.2374,0.9576-0.5612,1.2862
	c-0.2837,0.2836-0.6959,0.5097-1.1248,0.5565l-0.1614,0.0089h-0.076c-0.4832,0-0.9606-0.2464-1.286-0.5654
	c-0.3176-0.3286-0.564-0.8026-0.564-1.2862c0-0.4804,0.2464-0.9608,0.564-1.28c0.2892-0.2919,0.6986-0.5094,1.1254-0.5541
	l0.1607-0.0085H184.2972z M9.2942,61.9807l0.0982,0.0116c0.3998,0,0.7252,0.4014,0.643,0.8026
	c-0.3376,3.211-0.3512,6.7318-0.228,10.341c0.266-0.45,1.1096-2.9586,1.6708-3.6822c0.2372-0.3222,0.722-0.4044,1.0414-0.164
	c0.2432,0.2522,0.3208,0.6414,0.0866,0.9668c-0.406,0.6416-1.531,3.9192-2.7182,4.88c0.0804,1.7208,0.1854,3.4448,0.2934,5.1444
	c0.5778-0.538,1.0018-1.283,1.458-2.0826c0.3998-0.7236,0.8026-1.4412,1.3622-2.0858c0.2462-0.3194,0.6382-0.3194,0.9608-0.0822
	c0.3222,0.2374,0.3222,0.7268,0.082,0.964c-0.4758,0.5624-0.7966,1.283-1.204,1.9306c-0.6646,1.1798-1.3318,2.3504-2.5572,3.0344
	c0.114,2.0402,0.2204,4.0348,0.2814,5.9502c0.6492-0.8058,1.1812-1.8304,1.7192-2.8884c0.3954-0.8088,0.7982-1.6876,1.356-2.411
	c0.1688-0.3222,0.6448-0.4014,0.9672-0.2404c0.3176,0.2404,0.4044,0.724,0.1596,1.0462c-0.3938,0.626-1.198,2.2408-1.198,2.2408
	c-0.8194,1.6326-1.6434,3.1862-2.9522,4.1744c0.0258,2.0434-0.0154,3.9984-0.1826,5.7802
	c-0.0774,0.3984-0.3984,0.6384-0.7998,0.6384c-0.4044-0.0852-0.6414-0.4044-0.6414-0.8056c0.1656-1.709,0.1974-3.5848,0.1794-5.558
	c-0.7298-0.5506-1.8472-1.8184-2.747-3.0224c-1.122-1.5262-1.9294-2.9706-1.6084-3.5302c0-0.0848,0.7282-0.4834,1.0442-0.2398
	c0.3222,0.2398,0.8802,1.8426,1.689,2.8884c0.4864,0.6718,1.0538,1.3316,1.5706,1.8788c-0.0596-1.9886-0.1778-4.0774-0.3042-6.2086
	c-1.511-1.198-3.4496-2.852-4.24-4.8224c-0.1598-0.319,0.0854-0.7996,0.406-0.8816c0.3998-0.1552,0.798,0,0.9624,0.3194
	c0,0,1.6358,2.4838,2.7622,3.469C8.614,78.0312,8.5276,76.31,8.45,74.5984c-0.695-0.7538-2.5892-3.7734-2.7532-4.0224
	c-0.152-0.3194,0-0.7178,0.3312-0.967c0.397-0.1552,0.7982,0,0.9548,0.3222c0.1642,0.2462,1.154,1.9854,1.3802,2.326
	c-0.0954-3.3324-0.079-6.5886,0.2268-9.6204c0.0682-0.3367,0.3024-0.6146,0.61-0.6522L9.2942,61.9807z M176.5898,49.4352
	l-4.3282,10.1462c-1.3574,3.694-2.1618,7.2242-2.5616,10.6752c-0.389,3.3566-0.3922,6.5706-0.0258,9.699l0.5367,0.6084l0,0
	l0.5289,0.608l-0.0516,0.0302c3.4342,3.7642,5.6764,7.6044,7.1148,11.4386c0.2522,0.6384,0.4728,1.2862,0.6796,1.9276
	c4.4634-6.5554,6.438-13.5364,6.0626-21.025C184.235,65.9786,181.5018,57.888,176.5898,49.4352z M176.2782,57.5746
	c0.3635,0,0.6615,0.2689,0.7744,0.617l0.0282,0.1066l0.304,7.8902c0.6241-1.0892,1.0803-2.4367,1.489-3.8148l0.1346-0.4602v-0.082
	c0.0792-0.3194,0.479-0.5568,0.8788-0.4804c0.3652,0.1449,0.5273,0.4845,0.4996,0.7838l-0.0162,0.098v0.079
	c-0.6436,2.2093-1.2903,4.3422-2.6645,5.8041l-0.2359,0.2373l0.1824,4.8252c0.4026-0.462,0.7842-0.9792,1.1158-1.5598
	c0.6354-1.119,1.2798-2.4048,1.7618-3.77c0.1582-0.3222,0.5626-0.5596,0.9608-0.3986c0.3222,0.1582,0.5638,0.5596,0.403,0.964
	c-0.561,1.3622-1.2056,2.7184-1.9248,3.9254c-0.5662,0.9484-1.2358,1.8299-1.9614,2.5564l-0.2746,0.265l0.2384,6.1816
	c0.0988-0.128,2.7168-3.4662,3.8416-5.631c0.1658-0.3226,0.558-0.4804,0.882-0.2404c0.4042,0.1582,0.4802,0.5594,0.3206,0.964
	c-1.1218,2.1616-2.4032,4.0164-3.612,5.4544c-0.3162,0.3194-0.5626,0.5626-0.8014,0.7968c-0.1104,0.1216-0.2309,0.235-0.3585,0.3485
	l-0.1963,0.1713l0.1596,4.0592c0.0744,0.3982-0.2462,0.7204-0.6444,0.7204c-0.3694,0.0759-0.671-0.1903-0.7152-0.5497
	l-0.0056-0.0917l-0.1718-4.0896c-0.991-0.6598-1.9366-1.3864-2.7988-2.2498c-0.8818-0.8848-1.8484-1.9246-2.6468-3.0496
	c-0.24-0.3194-0.24-0.8058,0.0776-1.0398c0.3194-0.1582,0.8012-0.1582,1.0446,0.164c0.8042,1.04,1.6084,2.0798,2.566,2.8762
	c0.4049,0.4061,0.8251,0.7847,1.2535,1.141l0.4309,0.3492l-0.2494-5.9534c-0.1002-0.0394-0.2098-0.07-0.313-0.1036
	c-0.3208-0.0818-0.5608-0.237-0.8028-0.319c-1.3606-0.6446-2.5628-1.8458-3.8476-3.293c-0.2432-0.3162-0.1598-0.7936,0.1582-1.0368
	c0.2416-0.2404,0.719-0.164,0.9668,0.085c1.122,1.3532,2.2438,2.399,3.3688,2.9616c0.0761,0.0387,0.1691,0.0785,0.263,0.1161
	l0.1398,0.0543l-0.2142-5.2998c-0.0912-0.0272-0.6766-0.3282-0.9154-0.4864c-1.0442-0.5626-2.1618-1.5234-3.209-2.6482
	c-0.2388-0.3224-0.2388-0.7206,0-1.04c0.3192-0.2432,0.8072-0.2432,1.0472,0.076c0.9285,1.0029,2.8166,2.3316,2.9928,2.4487
	l0.0128,0.0081l-0.3586-8.7172C175.6366,57.9,175.8782,57.5746,176.2782,57.5746z M81.0418,46.1058v35.6258H47.3394v-2.3352h30.89
	v-3.0468h-30.487V74.188h30.487v-3.0556h-30.487v-2.2412h30.487V66.243h-30.487v-2.2498h30.487v-3.287h-30.487v-2.2438h30.487
	v-3.612h-30.487v-2.168h30.487v-3.2108h-30.89v-3.3658H81.0418z M142.6576,46.1058v35.6258h-33.6962v-2.3352h30.8868v-3.0468
	h-30.4824V74.188h30.4824v-3.0556h-30.4824v-2.2412h30.4824V66.243h-30.4824v-2.2498h30.4824v-3.287h-30.4824v-2.2438h30.4824
	v-3.612h-30.4824v-2.168h30.4824v-3.2108h-30.8868v-3.3658H142.6576z M635.5962,46c9.2063,0,15.3928,6.6124,15.3928,16.4547
	c0,11.811-7.9742,17.0989-15.8764,17.0989c-9.0638,0-15.3942-6.7854-15.3942-16.4993C619.7184,53.0131,626.2474,46,635.5962,46z
	 M521.4813,46.5073l11.4633,29.5109v3.028h-28.851l0.0504-3.2471l11.5611-29.2918H521.4813z M314.9016,46.5072l11.7554,32.5389
	h-6.0857l-7.7252-21.8896c-0.4261-1.2683-0.7672-2.4213-1.0796-3.5584c-0.2395,0.9097-0.4928,1.8286-0.7755,2.773l-0.2177,0.7133
	l-7.5841,21.9616h-5.9418l11.6043-32.5389H314.9016z M413.1587,46.5072v32.5389h-5.6539V46.5072H413.1587z M256.0675,46.5072v4.8094
	h-13.4136v8.3866h12.6882v4.7633h-12.6882v9.7702h14.1405v4.8094H237V46.5072H256.0675z M376.4948,46.5075l10.6744,16.0554
	c1.6754,2.5193,3.1263,4.9103,4.3887,7.2379c-0.1664-2.7659-0.2212-5.4817-0.2314-8.4409l-0.0018-1.1217V46.5075h5.4106v32.5389
	h-5.3703l-10.5766-16.1044c-1.9604-2.9805-3.5164-5.5272-4.7715-7.813c0.1201,2.7496,0.1769,5.6196,0.1836,9.1858l0.0006,0.7227
	v14.0089h-5.4121V46.5075H376.4948z M790.645,46.5072v32.5389h-5.6539V46.5072H790.645z M777.9514,46.5079v4.8555h-9.9778v27.6834
	h-5.7014V51.3634h-9.926v-4.8555H777.9514z M585.8674,46.5076l5.7431,15.5106c1.1616,3.2803,2.0267,5.9293,2.7032,8.2843
	c0.6477-2.1713,1.4839-4.6378,2.5976-7.6702l0.2265-0.6141l5.9935-15.5106h6.542l2.1288,32.5389h-5.5618l-0.8636-14.3389
	l0.7182-0.0389l-0.7197,0.0259c-0.1627-2.9214-0.3541-6.3328-0.4419-9.4459c-0.751,2.2381-1.5964,4.5946-2.5504,7.1121
	l-0.3629,0.9517l-5.9403,15.5496h-4.1972l-5.451-15.2901c-1.0809-3.0598-1.9359-5.6324-2.624-7.9153
	c-0.1046,2.5978-0.2465,5.4362-0.4116,8.2004l-0.0721,1.1792l-0.9154,14.0103h-5.4683l2.3822-32.5389H585.8674z M665.5271,46.5076
	V60.257c0.4799-0.623,0.9222-1.1775,1.2828-1.6251l0.1494-0.1851l10.2052-11.9392h7.1739l-12.5082,13.9671l13.2121,18.5718h-6.7593
	l-10.447-14.8433l-2.3088,2.5424v12.301h-5.6539V46.5076H665.5271z M280.5574,46.5076l11.7554,32.5389h-6.0857l-7.7252-21.8896
	c-0.4261-1.2697-0.7672-2.4213-1.0795-3.5584c-0.2395,0.9097-0.4928,1.8277-0.7755,2.7725l-0.2177,0.7139l-7.5841,21.9616h-5.9418
	l11.6043-32.5389H280.5574z M816.3439,46.508L828,79.0455h-6.0339l-3.4876-9.7803h-10.555l-3.3912,9.7803h-5.8914l11.6043-32.5375
	H816.3439z M460.6772,46.5082v13.0101h14.3492V46.5082h5.7v32.5375h-5.7V64.466h-14.3492v14.5796h-5.6524V46.5082H460.6772z
	 M736.5181,46.508l11.6547,32.5375h-6.0339l-3.4877-9.7803h-10.5549l-3.3898,9.7803h-5.8928L730.418,46.508H736.5181z
	 M340.0152,46.5082v13.0101h14.3492V46.5082h5.7v32.5375h-5.7V64.466h-14.3492v14.5796h-5.6525V46.5082H340.0152z M547.0921,46.5082
	v13.0101h14.3492V46.5082h5.7v32.5375h-5.7V64.466h-14.3492v14.5796h-5.6525V46.5082H547.0921z M699.7801,46.2774
	c4.2505,0,7.4876,0.9267,9.6208,2.7571c2.0007,1.6473,3.1076,4.1551,3.1076,7.052c0,2.9704-0.9197,5.3787-2.7333,7.1586
	c-2.2972,2.3319-6.0224,3.6204-10.4787,3.6204c-0.7117,0-1.4435-0.0129-2.1486-0.0771l-0.5229-0.0584v12.3154h-5.6539V46.9822
	l0.6074-0.0966C694.1204,46.4821,696.8797,46.2774,699.7801,46.2774z M429.5804,46.5083v13.748
	c0.4799-0.6217,0.9222-1.1772,1.2838-1.624l0.1498-0.1847l10.2038-11.9392h7.1739l-12.5082,13.9671l13.2121,18.5704h-6.7579
	l-10.4485-14.8419l-2.3088,2.5423v12.2996h-5.6539V46.5083H429.5804z M635.4019,50.7172c-6.7291,0-9.7403,6.1498-9.7403,12.2448
	c0,5.7188,3.0328,11.8744,9.6928,11.8744c6.7291,0,9.7418-6.1253,9.7418-12.1972
	C645.0961,56.8972,642.0619,50.7172,635.4019,50.7172z M518.3939,53.0534c-0.3936,1.1798-0.8633,2.5311-1.3384,3.8106
	l-0.2377,0.6327l-6.4513,16.74h16.1095l-6.2541-16.1361C519.4705,56.1218,518.8588,54.4341,518.3939,53.0534z M813.1744,53.3381
	c-0.2819,0.9957-0.5598,1.9102-0.842,2.7821l-0.1699,0.5183l-2.8586,8.0479h7.7885l-2.8514-7.9874
	C813.8207,55.5244,813.4795,54.4118,813.1744,53.3381z M733.3472,53.3381c-0.2831,0.9957-0.5602,1.9102-0.8421,2.7821
	l-0.1698,0.5183l-2.86,8.0479h7.7899l-2.8514-7.9874C733.992,55.5244,733.6523,54.4118,733.3472,53.3381z M24.0704,60.6302
	c0.4866,0,0.967,0.2374,1.2876,0.5626c0.4046,0.3192,0.5594,0.7996,0.5594,1.28s-0.1548,0.964-0.5594,1.2832
	c-0.199,0.2008-0.471,0.3132-0.76,0.389c-0.1688,0.058-0.3422,0.0944-0.5276,0.0944c-0.1794,0-0.3482-0.0364-0.5122-0.0944
	c-0.2964-0.0758-0.5612-0.1882-0.7678-0.389c-0.3984-0.3192-0.5626-0.8028-0.5626-1.2832s0.1642-0.9608,0.5626-1.28
	C23.1142,60.8676,23.5946,60.6302,24.0704,60.6302z M163.3592,59.3442c0.5638,0,1.0456,0.2372,1.362,0.5594
	c0.3224,0.3194,0.5686,0.8026,0.5686,1.2892c0,0.4804-0.2462,0.9578-0.5686,1.28c-0.2054,0.2036-0.5004,0.3254-0.8226,0.3982
	c-0.175,0.0518-0.3448,0.0822-0.5394,0.0822c-0.1824,0-0.3484-0.0304-0.5172-0.085c-0.2902-0.079-0.5608-0.1944-0.7616-0.3954
	c-0.3222-0.3222-0.558-0.7996-0.558-1.28c0-0.4866,0.2358-0.9698,0.558-1.2892C162.3982,59.5814,162.8788,59.3442,163.3592,59.3442z
	 M699.8765,50.9024c-1.3446,0-2.3839,0.0761-3.0837,0.1706l-0.1679,0.024v10.9102c0.7312,0.1254,1.6438,0.1874,2.7665,0.1874
	c2.7881,0,7.4661-0.7696,7.4661-5.9235C706.8575,51.5985,702.4832,50.9024,699.8765,50.9024z M41.9258,20.8908
	c-4.4256,2.1072-7.2212,4.4392-10.467,7.2426c-1.0458,0.8026-2.0872,1.6816-3.2942,2.6484
	c-8.8236,8.1028-8.9074,20.2164-8.985,28.7996c0,0.1824-0.0044,0.377-0.0044,0.5564c5.8042-3.834,11.1344-9.3892,15.0886-15.394
	c0.8042-1.204,1.6084-2.4902,2.2484-3.7732c0.719-1.2862,1.3668-2.4842,1.844-3.7704c2.0844-5.4576,2.6482-9.4682,3.2108-13.5578
	C41.6764,22.7578,41.7876,21.861,41.9258,20.8908z M14.9246,53.2448c0.4866,0,0.8804,0.2372,1.2132,0.4804
	c0.2356,0.3254,0.4788,0.7238,0.4788,1.2042c0,0.4014-0.2432,0.7996-0.4788,1.122c-0.3328,0.3222-0.7266,0.4834-1.2132,0.4834
	c-0.4758,0-0.8802-0.1612-1.1994-0.4834c-0.3192-0.3224-0.4774-0.7206-0.4774-1.122c0-0.4804,0.1582-0.8788,0.4774-1.2042
	C14.0444,53.482,14.4488,53.2448,14.9246,53.2448z M143.9908,18.4918c-0.2992,11.2348,5.2846,19.648,8.699,23.7618
	c0.7206,0.8058,2.5646,2.566,2.6438,2.6484c0,0,3.8706,3.305,5.78,5.2934c1.645,1.7178,3.2912,3.679,4.944,5.7616
	c-0.1145-0.4496-0.1894-0.8223-0.2063-1.0837l-0.0037-0.1051V53.327l0.0087-0.4166c0.0724-3.5212,0.0823-6.6092-1.5913-14.7454
	l-0.1004-0.4845l0.041-0.0122c-2.4384-6.8562-9.4558-12.761-15.283-16.437c-1.125-0.7204-2.2498-1.3652-3.2138-1.8394
	C145.0782,19.0454,144.517,18.7566,143.9908,18.4918z M38.4368,25.8864c0.3208,0.1644,0.3998,0.6386,0.2404,0.958
	c-0.0822,0-4.786,7.4884-6.7744,11.2436c0.912-0.225,3.0056-1.6874,3.4828-2.0128c0.321-0.1612,0.8058-0.079,0.9654,0.2402
	c0.2416,0.3192,0.1612,0.7998-0.1596,0.9668c-0.4848,0.3192-3.267,2.2228-5.1248,2.3928c-0.6398,1.2286-1.2588,2.4478-1.8562,3.6186
	c-0.0044,0.009-0.0044,0.0148-0.006,0.027c0.8028-0.1884,1.6006-0.6808,2.4112-1.1492c0.6428-0.4772,1.3652-0.8848,2.0856-1.125
	c0.3238-0.0758,0.7282,0.0882,0.8864,0.4806c0.076,0.3222-0.0852,0.7266-0.4866,0.8906c-0.558,0.1552-1.1202,0.5564-1.765,0.9578
	c-1.2346,0.7268-2.4718,1.5144-3.8902,1.4108c-0.7828,1.5386-1.5342,2.9646-2.2666,4.281c0.6248-0.2068,1.1474-0.5412,1.7464-0.9516
	c0.5596-0.4012,1.2056-0.8056,1.9264-1.2132c0.3224-0.1552,0.7996-0.073,0.964,0.3224c0.1578,0.3224,0.0802,0.7238-0.242,0.9638
	c-0.8058,0.4012-1.3636,0.7206-1.841,1.1248c-1.1264,0.7056-2.0128,1.2862-3.5042,1.417c-0.6644,1.119-1.3164,2.1346-1.9564,2.9948
	c-0.1582,0.3254-0.643,0.4044-0.964,0.1582c-0.3192-0.237-0.3998-0.7174-0.161-0.9608c0.567-0.7692,1.1386-1.6754,1.7272-2.6754
	c-0.3986-1.0066-0.8548-2.992-1.0842-4.5458c-0.0608-0.1922-0.073-0.4386-0.1189-0.6916l-0.0421-0.1902V43.941
	c-0.0792-0.4012,0.2432-0.7238,0.643-0.7238c0.3692,0,0.6707,0.2711,0.7184,0.6253l0.0066,0.0985v0.0792
	c0,0.2432,0.073,0.3982,0.073,0.6382c0,0.2436,0.0868,0.5658,0.0868,0.888c0.1582,1.0126,0.3892,2.1616,0.6444,3.0556
	c0.789-1.4382,1.6162-3.0374,2.4918-4.734c-0.1734-0.462-0.4028-0.9486-0.6508-1.4504c-0.7252-1.447-1.4412-2.8882-0.9638-4.494
	c0.0838-0.4012,0.485-0.6414,0.8056-0.5654c0.3954,0.0792,0.6402,0.4836,0.5596,0.888c-0.3238,1.1188,0.3194,2.3198,0.8816,3.5302
	c0.0702,0.1488,0.1414,0.3038,0.2146,0.4588c0.6234-1.2282,1.2678-2.4812,1.9412-3.7578c-0.2826-1.1464-0.7904-5.9322-0.713-6.1696
	c0.0854-0.4012,0.3998-0.6412,0.806-0.6412c0.3996,0.076,0.6416,0.4772,0.5594,0.8786c0,0.158,0.2264,3.1772,0.3844,3.9862
	c1.8958-3.521,4.0016-7.124,6.3624-10.4806C37.7192,25.7862,38.075,25.6644,38.4368,25.8864z M170.422,49.712
	c0.5626,0,1.0414,0.2462,1.3622,0.5684c0.3192,0.3192,0.5626,0.7968,0.5626,1.2862c0,0.4774-0.2434,0.9608-0.5626,1.2768
	c-0.2114,0.2098-0.5016,0.3226-0.83,0.4014c-0.1626,0.049-0.3482,0.0822-0.5322,0.0822c-0.1776,0-0.3586-0.0396-0.5214-0.085
	c-0.2876-0.0822-0.5624-0.1918-0.7678-0.3986c-0.3176-0.316-0.558-0.7994-0.558-1.2768c0-0.4894,0.2404-0.967,0.558-1.2862
	C169.4552,49.9582,169.9416,49.712,170.422,49.712z M149.1644,26.0508c0.8788,1.0398,1.7588,2.0826,2.5584,3.2074
	c0.5536,0.7026,1.0674,1.3776,1.5598,2.0556c0.0474-0.301,0.099-0.605,0.1278-0.9334c0.1644-0.885,0.1644-1.8426,0.1644-2.8002
	c0-0.4136,0.2384-0.7358,0.6444-0.7358c0.3924,0,0.7114,0.3222,0.7114,0.7358c0.087,0.9576,0,1.9976-0.0728,2.9614
	c-0.0716,0.827-0.2204,1.6478-0.4608,2.3716c0.8136,1.1554,1.604,2.3136,2.361,3.469c0.2054-1.1312,0.339-2.4384,0.2662-3.7548
	c-0.0854-0.3196,0.2372-0.7208,0.6444-0.7208c0.3954,0,0.7162,0.3194,0.7162,0.6386c0.0822,1.6084,0,3.1318-0.239,4.4908
	c-0.0818,0.2462-0.2294,0.9942-0.2672,1.0948c0.6764,1.0852,1.3316,2.1648,1.9548,3.2592c0.2358-1.426,0.3998-2.9248,0.3998-4.518
	c0-0.4018,0.3164-0.7118,0.7222-0.7118c0.403,0,0.7206,0.31,0.7206,0.7118c0,1.6934-0.1536,3.2956-0.4046,4.8222
	c-0.0818,0.319-0.1578,0.5594-0.24,0.8786c-0.0562,0.2524-0.1138,0.4866-0.1338,0.6932c1.2392,2.2592,2.381,4.5396,3.4298,6.8472
	c0.1582,0.4014,0,0.8058-0.4044,0.964c-0.3238,0.17-0.722,0-0.8818-0.3226c-1.0382-2.2528-2.1938-4.4846-3.4114-6.7132
	c-0.8712-0.0912-1.7042-0.231-2.5312-0.5016c-0.9594-0.3226-1.8442-0.724-2.8078-1.2044c-0.3196-0.24-0.4776-0.6412-0.2404-0.9608
	c0.1688-0.404,0.5612-0.4772,0.9672-0.3282c0.7962,0.4806,1.6828,0.8878,2.5628,1.125c0.3908,0.1612,0.8044,0.2706,1.2148,0.3586
	c-0.6552-1.1702-1.3516-2.3256-2.066-3.472c-0.8166,0.012-1.5888-0.1124-2.355-0.2494c-0.7994-0.2432-1.6084-0.5624-2.3244-0.885
	c-0.3982-0.167-0.5686-0.6414-0.327-0.9666c0.163-0.4044,0.5672-0.5564,0.8896-0.3224c0.7176,0.2374,1.3588,0.5656,2.1648,0.7236
	c0.319,0.1188,0.6918,0.2036,1.0704,0.2432c-0.83-1.3164-1.7092-2.6178-2.6102-3.913c-0.23-0.0578-0.4548-0.0942-0.625-0.0942
	l-0.5359-0.1133c-1.3317-0.2838-2.606-0.6063-3.8791-1.7383c-0.3222-0.2404-0.3222-0.7208-0.0806-0.9608
	c0.3196-0.3224,0.7208-0.3224,1.0476-0.0792c0.868,0.8058,1.8348,1.0826,2.82,1.2832c-0.4574-0.6234-0.9228-1.2496-1.3834-1.8458
	c-0.792-1.0458-1.6828-2.1738-2.5692-3.2076c-0.2342-0.3252-0.1566-0.7266,0.085-0.9638
	C148.4364,25.7224,148.9182,25.7224,149.1644,26.0508z M49.4284,27.5802c0.561,0,0.9624,0.234,1.286,0.5532
	c0.403,0.3222,0.5564,0.8026,0.5564,1.2862c0,0.1582-0.0304,0.319-0.0758,0.4712c-0.0716,0.3072-0.1856,0.602-0.3986,0.8118
	c-0.2674,0.2068-0.5516,0.3254-0.8602,0.3954c-0.1688,0.0546-0.3348,0.085-0.5078,0.085c-0.1782,0-0.3528-0.0394-0.5154-0.0912
	c-0.2936-0.0728-0.5672-0.1856-0.7694-0.3892c-0.3194-0.3222-0.5578-0.8058-0.5578-1.283c0-0.4836,0.2384-0.964,0.5578-1.2862
	C48.4644,27.8142,48.9432,27.5802,49.4284,27.5802z M136.3988,25.33c0.5608,0,1.0444,0.2342,1.3666,0.5564
	c0.3238,0.3194,0.5628,0.8026,0.5628,1.2802c0,0.4832-0.239,0.9668-0.5628,1.289c-0.3222,0.3194-0.8058,0.4804-1.3666,0.4804
	c-0.476,0-0.9608-0.161-1.2846-0.4804c-0.3162-0.3222-0.5578-0.8058-0.5578-1.289c0-0.5594,0.2416-0.9608,0.5578-1.2802
	C135.438,25.5642,135.9228,25.33,136.3988,25.33z M87.3464,3.2804c-4.2066,1.5082-8.5484,2.4748-12.9648,3.4268
	c-1.6844,0.4072-3.2912,0.7234-4.9772,1.1248c-5.4516,1.128-9.4666,3.2896-12.591,6.0962
	c-2.8198,2.6086-4.9178,5.7312-6.8334,9.1398c1.3668,0.0546,2.6926-0.0062,4.0242-0.07c1.6828-0.0822,3.3718-0.1614,5.2098,0
	c3.6168,0.0792,7.0616-0.2402,10.271-1.122c3.2122-0.8846,6.1828-2.3258,8.828-4.4938c2.7212-2.4052,4.8984-4.8162,6.499-7.3032
	C86.1272,7.996,86.9436,5.7188,87.3464,3.2804z M98.1692,1.7542c0.7404,3.1772,1.9792,4.5152,2.4918,5.3114
	c0.5168,0.7938,0.8176,1.1222,0.9166,1.253c3.4814,5.0744,11.1554,9.7872,12.0388,10.1796c4.3342,2.3288,9.1444,3.463,14.3648,3.299
	c1.6024-0.0854,3.4464-0.2464,5.292-0.4076c1.3394-0.067,2.7366-0.1824,4.1396-0.3042c-0.8012-0.7662-1.7378-1.6844-2.6148-2.6574
	c-1.4898-1.6448-2.8094-3.5116-3.3978-5.0896c-1.6478-1.727-3.3064-3.369-5.4316-4.7828c-2.1638-1.5232-5.5204-3.153-8.5836-4.0074
	c-3.0632-0.8634-5.6966-0.8818-8.6624-1.128C105.094,3.1374,101.471,2.7848,98.1692,1.7542z M81.7624,7.5978
	c0.2434,0.3982,0.0822,0.8058-0.2416,1.043c-2.6164,1.5474-5.1734,3.0008-7.726,4.3692c1.21,0.1672,3.7976,0.2768,3.9558,0.2768
	c0.3208,0,0.64,0.3252,0.64,0.7294c0,0.3986-0.3192,0.7176-0.7222,0.6386c-0.076,0-4.0104-0.0882-5.8894-0.5716
	c-1.0018,0.5262-2.0082,1.04-3.0132,1.5356c-0.2916,0.1366-0.5854,0.2614-0.8786,0.4012c0.9788,0.383,1.9886,0.5776,3.045,0.7964
	c0.3222,0.0824,0.646,0.0824,0.967,0.1646c0.3952,0.076,0.6398,0.4804,0.5594,0.8848c-0.0822,0.395-0.4866,0.6324-0.8056,0.5622
	c-0.3196-0.082-0.637-0.1672-0.9656-0.2522c-1.5504-0.2858-3.0296-0.6052-4.4512-1.3984c-1.3164,0.5896-2.6364,1.1582-3.9588,1.7086
	c0.348,0.1154,0.698,0.2278,1.0368,0.3406c0.9592,0.2432,1.9946,0.4042,3.0436,0.5654c0.4044,0.0728,0.6398,0.3954,0.561,0.7936
	c0,0.4044-0.4016,0.6414-0.8014,0.6414c-1.0442-0.152-2.081-0.4014-3.127-0.6414c-0.8998-0.2768-1.8122-0.5564-2.7576-0.8848
	c-1.4276,0.5564-2.8658,1.1036-4.3038,1.6114c-0.3998,0.1582-0.8042,0-0.8802-0.4012c-0.1582-0.4044,0-0.8058,0.3982-0.8818
	c1.3148-0.4624,2.6056-0.9518,3.8934-1.4564c0.2278-0.9914,0.462-1.9792,0.8406-3.0344c0.3998-1.0552,0.8802-2.171,1.5246-3.29
	c0.239-0.3982,0.6418-0.4832,0.964-0.3224c0.3998,0.2436,0.4746,0.6386,0.3208,0.964c-0.643,1.122-1.1266,2.1648-1.4456,3.1288
	c-0.2526,0.6474-0.432,1.274-0.5976,1.9032c1.5626-0.6414,3.1136-1.3104,4.6624-2.0188c0.0886-0.812,0.2268-1.6326,0.4276-2.4538
	c0.2446-0.9576,0.6398-1.9278,1.283-2.8882c0.237-0.3226,0.7236-0.4016,1.0426-0.1644c0.324,0.2462,0.403,0.7266,0.163,1.0488
	c-0.5626,0.724-0.8864,1.5204-1.122,2.4022c-0.1294,0.4228-0.2068,0.8816-0.2874,1.3468c0.339-0.1488,0.672-0.3038,1.008-0.4588
	c0.8998-0.4502,1.7968-0.9156,2.6998-1.3838c0.1691-0.9135,1.5163-3.9516,1.6952-4.3526l0.0196-0.0438
	c0.1582-0.3224,0.558-0.4832,0.9608-0.237c0.3196,0.155,0.397,0.6414,0.2432,0.9608c-0.1688,0.161-0.2432,0.3982-0.3222,0.5592
	c-0.082,0.1582-0.1656,0.4044-0.3238,0.5626c-0.2188,0.5626-0.4304,1.1248-0.5974,1.6632c2.732-1.4474,5.4806-2.992,8.2992-4.7128
	C81.1178,7.1906,81.6044,7.2694,81.7624,7.5978z M46.2158,17.3c0.5674,0,0.9656,0.2372,1.2862,0.5658
	c0.406,0.31,0.5642,0.7146,0.5642,1.2798c0,0.1614-0.0352,0.3164-0.0744,0.4622c-0.0778,0.31-0.1946,0.6112-0.406,0.8178
	c-0.4044,0.3254-0.8026,0.4866-1.37,0.4866c-0.4816,0-0.9576-0.1612-1.28-0.4866c-0.3206-0.319-0.5638-0.7964-0.5638-1.28
	c0-0.5652,0.2432-0.9698,0.5638-1.2798C45.2582,17.5372,45.7342,17.3,46.2158,17.3z M107.6784,6.2298
	c2.42,1.435,4.7872,2.803,7.1344,4.1076c0.0212-0.228,0.0562-0.441,0.0866-0.6598c0.0776-0.5594,0.2358-0.9698-0.1582-1.6052
	c-0.164-0.3164-0.0806-0.7208,0.2358-0.958c0.406-0.1642,0.8026-0.082,0.9638,0.2372c0.643,1.052,0.479,1.7666,0.3208,2.5724
	c0,0.3922-0.073,0.705-0.073,1.1706c1.3866,0.7598,2.7806,1.4988,4.1668,2.1922c0.3528,0.173,0.7008,0.3344,1.0538,0.4984
	c-0.0868-0.5048-0.1884-1.0246-0.33-1.5414c-0.237-0.8786-0.567-1.6784-1.125-2.4052c-0.1626-0.3192-0.1626-0.8058,0.1628-1.0458
	c0.3206-0.2372,0.798-0.152,1.0368,0.1672c0.6414,0.964,1.0474,1.9248,1.2862,2.8884c0.301,0.9,0.392,1.797,0.5364,2.691
	c1.5508,0.7266,3.106,1.4168,4.6598,2.0582c-0.1704-0.7358-0.3862-1.4776-0.622-2.1828c-0.3998-1.0462-0.8768-2.086-1.4486-3.132
	c-0.2342-0.322-0.0744-0.8026,0.2448-0.9666c0.327-0.155,0.804-0.0732,0.9666,0.2492c0.6418,1.1188,1.1176,2.241,1.5218,3.3628
	c0.3956,1.0488,0.7252,2.0918,0.964,3.1288c0.0698,0.1032,0.1414,0.1944,0.1962,0.2614c1.2146,0.4836,2.428,0.9394,3.6546,1.35
	c0.3176,0.1582,0.5594,0.5624,0.3996,0.9608c-0.082,0.3222-0.4802,0.5564-0.88,0.3982c-1.619-0.5594-3.2136-1.1706-4.7904-1.8182
	c-0.7736,0.2858-1.5278,0.529-2.2772,0.6934c-1.0384,0.3282-2.083,0.5622-3.203,0.7266c-0.3196,0-0.7252-0.2372-0.8044-0.6418
	c0-0.407,0.237-0.7266,0.643-0.8116c1.0446-0.1522,2.0054-0.3162,3.0448-0.6386c0.1856-0.0458,0.3804-0.1064,0.5644-0.155
	c-1.2482-0.5382-2.4918-1.1038-3.7354-1.6844c-1.2121,0.6293-2.4652,0.9409-3.771,1.1988l-0.4372,0.0844l-0.9592,0.24
	c-0.4072,0.079-0.7284-0.164-0.7996-0.5654c-0.0852-0.3954,0.1536-0.7146,0.4758-0.7968c0.4014-0.0818,0.7208-0.161,1.049-0.24
	c0.9624-0.2068,1.8882-0.3954,2.7684-0.7176c-0.2234-0.1094-0.4608-0.21-0.6918-0.3286c-1.5414-0.7722-3.1012-1.6052-4.6718-2.4596
	c-0.4134,0.1886-0.807,0.377-1.1812,0.5352c-0.8846,0.4864-1.6844,0.7996-3.0496,0.8786c-0.4026,0-0.719-0.3192-0.719-0.7204
	c0-0.3164,0.3164-0.7146,0.719-0.7146c1.0446,0,1.6846-0.3222,2.4066-0.7266c0.0808-0.0366,0.1658-0.0792,0.2538-0.1096
	c-2.151-1.2104-4.3216-2.4902-6.5112-3.825c-0.319-0.1612-0.4804-0.6386-0.2446-0.9576
	C106.8786,6.1506,107.3558,6.0716,107.6784,6.2298z M100.2108,8.7806c-2.7214,1.4076-5.0686,2.8764-7.057,4.354
	c-1.7666,1.3714-3.2018,2.7516-4.4622,4.205c3.3478,0.5656,6.6346,0.8268,9.9228,0.684c3.1834-0.073,6.4446-0.4954,9.7966-1.1524
	c-0.1884-0.1518-3.2106-2.7484-4.366-3.8764c-2.32,0.2888-9.6068,3.1044-9.6068,3.1044c-0.319,0.161-0.7964-0.0792-0.8816-0.4014
	c-0.1568-0.4012,0-0.8058,0.4028-0.964c0,0,5.7422-2.2042,8.886-2.9552C102.0184,10.915,100.3204,8.9204,100.2108,8.7806z
	 M138.9682,12.8064c0.5638,0,1.0474,0.243,1.3664,0.5622c0.321,0.3222,0.5642,0.7146,0.5642,1.2862
	c0,0.4836-0.2432,0.964-0.5642,1.2862c-0.319,0.3192-0.8026,0.4774-1.3664,0.4774c-0.4744,0-0.9608-0.1582-1.2818-0.4774
	c-0.3192-0.3222-0.5624-0.8026-0.5624-1.2862c0-0.5716,0.2432-0.964,0.5624-1.2862
	C138.0074,13.0494,138.4938,12.8064,138.9682,12.8064z"/>
</svg>
